<?xml version="1.0" encoding="utf-8"?>
<!-- Generator: Adobe Illustrator 16.0.0, SVG Export Plug-In . SVG Version: 6.00 Build 0)  -->
<!DOCTYPE svg PUBLIC "-//W3C//DTD SVG 1.1//EN" "http://www.w3.org/Graphics/SVG/1.1/DTD/svg11.dtd">
<svg version="1.1" id="Layer_1" xmlns="http://www.w3.org/2000/svg" xmlns:xlink="http://www.w3.org/1999/xlink" x="0px" y="0px"
	 width="640px" height="640px" viewBox="0 0 640 640" enable-background="new 0 0 640 640" xml:space="preserve">
<path d="M640,640H0V0h640V640z M609.781,205.4c-1.221-9.777-9.106-17.377-18.921-18.213c-9.814-0.775-18.885,5.322-21.717,14.765
	C531.607,326.616,424.698,345.415,420.23,346.135c-10.755,1.673-18.433,11.328-17.578,22.193
	c0.83,10.852,9.888,19.238,20.776,19.238h47.559c19.055,1.354,15.259,14.05,9.375,22.461
	c-16.309,22.814-37.427,41.955-61.841,55.993c-0.257,0.073-0.537,0.208-0.843,0.354c-14.782,7.373-46.105,11.071-46.898-19.861
	V203.765c0-24.688,4.297-38.238,17.468-60.504l-0.049,0.024c8.301-12.549,13.135-27.57,13.135-43.75
	c0-43.921-35.608-79.535-79.528-79.535c-43.94,0-79.542,35.614-79.542,79.535c0,16.742,5.199,32.251,14.014,45.05
	c11.236,19.214,15.74,32.08,16.553,51.892v246.717c1.514,34.644-31.666,30.835-46.942,23.193c-0.251-0.122-0.458-0.22-0.659-0.269
	c-24.164-13.843-45.074-32.715-61.341-55.176c-0.122-0.208-0.22-0.366-0.36-0.562c-5.999-8.398-10.162-21.411,9.162-22.803h47.638
	c0.024,0,0.062,0,0.085,0c11.518,0,20.838-9.326,20.838-20.85c0-10.596-7.922-19.36-18.17-20.654
	c-9.277-1.66-111.878-22.534-148.462-144.11c-2.851-9.43-11.878-15.552-21.729-14.765c-9.814,0.837-17.713,8.424-18.909,18.213
	c-4.504,36.341-4.828,68.75-2.752,97.077c0.763,40.302,9.735,78.595,25.348,113.323c6.463,15.613,11.725,24.207,12.402,25.257
	c0.586,0.952,1.275,1.819,2.002,2.637c39.733,67.651,106.012,117.884,184.46,136.279l-0.562-0.013
	c44.159,8.655,52.625,34.461,63.361,39.148c1.165,0.586,2.35,0.879,3.588,0.879c1.85,0,3.65-0.684,5.322-1.953
	c9.949-6.689,19.935-29.932,61.414-38.074l-0.342,0.013c78.309-18.384,144.494-68.433,184.229-135.913
	c0.854-0.928,1.66-1.904,2.344-3.003c0.684-1.123,6.543-10.681,13.501-28.076c14.502-33.142,22.925-69.519,24.023-107.679
	C614.64,276.323,614.42,242.949,609.781,205.4z"/>
</svg>
