<?xml version="1.0" encoding="utf-8"?>
<!-- Generator: Adobe Illustrator 16.0.0, SVG Export Plug-In . SVG Version: 6.00 Build 0)  -->
<!DOCTYPE svg PUBLIC "-//W3C//DTD SVG 1.1//EN" "http://www.w3.org/Graphics/SVG/1.1/DTD/svg11.dtd">
<svg version="1.1" id="Layer_1" xmlns="http://www.w3.org/2000/svg" xmlns:xlink="http://www.w3.org/1999/xlink" x="0px" y="0px"
	 width="640px" height="640px" viewBox="0 0 640 640" enable-background="new 0 0 640 640" xml:space="preserve">
<path d="M640,640H0V0h640V640z M381.992,143.695v-7.412h6.191v-21.797c0-4.239-3.441-7.681-7.685-7.681H329.53
	c0.079-2.86,0.322-3.913,0.388-4.106c0.005,0,0.088-0.058,0.225-0.133c0.758-0.221,1.48-0.493,2.221-0.744
	c0.194-0.045,0.326-0.088,0.551-0.133l-0.013-0.048c17.723-6.257,29.012-21.349,29.012-39.732C361.913,38.798,343.11,20,319.999,20
	c-23.106,0-41.908,18.798-41.908,41.909c0,5.79,4.688,10.479,10.479,10.479c5.785,0,10.478-4.688,10.478-10.479
	c0-11.554,9.399-20.952,20.952-20.952c11.559,0,20.957,9.398,20.957,20.952c0,10.426-6.742,16.767-14.043,19.706
	c-1.912,0.488-3.657,1.074-5.195,1.779c-0.3,0.137-0.586,0.291-0.872,0.449c-11.201,5.667-12.21,16.617-12.294,22.962H259.5
	c-4.243,0-7.681,3.441-7.681,7.681v21.797h6.191v7.416C154.303,171.09,77.835,265.518,77.835,377.832
	C77.835,511.578,186.262,620,320.008,620c133.742,0,242.156-108.422,242.156-242.168
	C562.164,265.514,485.696,171.086,381.992,143.695z"/>
</svg>
