<?xml version="1.0" encoding="utf-8"?>
<!-- Generator: Adobe Illustrator 16.0.0, SVG Export Plug-In . SVG Version: 6.00 Build 0)  -->
<!DOCTYPE svg PUBLIC "-//W3C//DTD SVG 1.1//EN" "http://www.w3.org/Graphics/SVG/1.1/DTD/svg11.dtd">
<svg version="1.1" id="Layer_1" xmlns="http://www.w3.org/2000/svg" xmlns:xlink="http://www.w3.org/1999/xlink" x="0px" y="0px"
	 width="44px" height="44px" viewBox="0 0 44 44" enable-background="new 0 0 44 44" xml:space="preserve">
<g>
	<g>
		<path fill="#FFFFFF" d="M15.56,15.891c0-0.713,0.55-1.263,1.263-1.263h5.133c1.629,0,2.913,0.448,3.727,1.263
			c0.632,0.632,0.958,1.405,0.958,2.363v0.041c0,1.711-0.979,2.627-2.037,3.177c1.67,0.57,2.831,1.527,2.831,3.462v0.041
			c0,2.547-2.098,3.911-5.276,3.911h-5.335c-0.713,0-1.263-0.55-1.263-1.263V15.891z M21.446,20.637c1.61,0,2.689-0.631,2.689-1.936
			v-0.04c0-1.12-0.896-1.813-2.505-1.813h-3.605v3.789H21.446z M22.18,26.666c1.711,0,2.749-0.672,2.749-1.956v-0.04
			c0-1.203-0.957-1.914-2.933-1.914h-3.972v3.91H22.18z"/>
	</g>
</g>
<g>
	<polygon fill="#414042" points="38.408,4.643 38.475,4.643 38.475,39.357 3.858,39.357 0.046,43.188 42.305,43.188 42.305,0.812 
		42.219,0.812 	"/>
	<polygon fill="#FFFFFF" points="3.761,39.357 3.761,4.643 38.408,4.643 42.219,0.812 -0.069,0.812 -0.069,43.188 0.046,43.188 
		3.858,39.357 	"/>
</g>
</svg>
