<?xml version="1.0" encoding="utf-8"?>
<!-- Generator: Adobe Illustrator 16.0.0, SVG Export Plug-In . SVG Version: 6.00 Build 0)  -->
<!DOCTYPE svg PUBLIC "-//W3C//DTD SVG 1.1//EN" "http://www.w3.org/Graphics/SVG/1.1/DTD/svg11.dtd">
<svg version="1.1" id="Layer_1" xmlns="http://www.w3.org/2000/svg" xmlns:xlink="http://www.w3.org/1999/xlink" x="0px" y="0px"
	 width="106px" height="100px" viewBox="0 0 106 100" enable-background="new 0 0 106 100" xml:space="preserve">
<g>
	<g>
		<path fill="#FFFFFF" d="M47.222,57.391l-3.733-10.567c-0.078-0.21-0.157-0.553-0.157-0.815c0-0.762,0.604-1.472,1.551-1.472
			c0.789,0,1.313,0.525,1.55,1.263l2.682,8.412l2.708-8.412c0.237-0.737,0.814-1.263,1.629-1.263h0.184
			c0.814,0,1.393,0.525,1.63,1.263l2.733,8.412l2.707-8.438c0.211-0.684,0.71-1.236,1.552-1.236c0.867,0,1.498,0.684,1.498,1.472
			c0,0.236-0.079,0.552-0.131,0.71L59.84,57.391c-0.342,0.973-1,1.419-1.762,1.419h-0.105c-0.789,0-1.445-0.446-1.734-1.366
			l-2.708-8.254l-2.733,8.254c-0.29,0.92-0.947,1.366-1.709,1.366h-0.106C48.194,58.81,47.537,58.363,47.222,57.391z"/>
	</g>
</g>
<g>
	<g>
		<path fill="#FFFFFF" d="M45.828,42.116c0-0.921,0.709-1.63,1.629-1.63h6.624c2.103,0,3.759,0.579,4.811,1.63
			c0.815,0.815,1.237,1.813,1.237,3.048v0.053c0,2.208-1.263,3.392-2.631,4.101c2.156,0.736,3.654,1.971,3.654,4.469v0.053
			c0,3.286-2.707,5.047-6.808,5.047h-6.887c-0.92,0-1.629-0.71-1.629-1.63V42.116z M53.424,48.24c2.078,0,3.471-0.814,3.471-2.497
			V45.69c0-1.446-1.158-2.34-3.234-2.34h-4.653v4.889H53.424z M54.371,56.021c2.207,0,3.549-0.867,3.549-2.524v-0.052
			c0-1.551-1.236-2.471-3.785-2.471h-5.127v5.047H54.371z"/>
	</g>
</g>
<g>
	<polygon fill="#FFFFFF" points="75.805,27.286 75.891,27.286 75.891,72.087 31.216,72.087 26.296,77.029 80.832,77.029 
		80.832,22.343 80.724,22.343 	"/>
	<polygon fill="#FFFFFF" points="31.09,72.087 31.09,27.286 75.805,27.286 80.724,22.343 26.147,22.343 26.147,77.029 
		26.296,77.029 31.216,72.087 	"/>
</g>
<g>
	<polygon fill="#414042" points="75.314,27.599 75.4,27.599 75.4,72.4 30.727,72.4 25.806,77.343 80.343,77.343 80.343,22.657 
		80.232,22.657 	"/>
	<polygon fill="#FFFFFF" points="30.601,72.4 30.601,27.599 75.314,27.599 80.232,22.657 25.658,22.657 25.658,77.343 
		25.806,77.343 30.727,72.4 	"/>
</g>
<text transform="matrix(1 0 0 1 43.8091 58.5547)" fill="#FFFFFF" font-family="'GothamRounded-Bold'" font-size="25.2936">C</text>
<g>
	<polygon fill="#FFF200" points="80.343,77.343 80.343,22.657 80.233,22.657 75.314,27.601 75.399,27.601 75.399,72.337 
		80.298,77.343 	"/>
	<polygon fill="#BE1E2D" points="75.399,72.337 75.399,72.4 30.726,72.4 25.806,77.343 80.298,77.343 	"/>
	<polygon fill="#00A651" points="80.233,22.657 25.774,22.657 30.661,27.601 75.314,27.601 	"/>
	<polygon fill="#00AEEF" points="25.657,22.657 25.657,77.343 25.806,77.343 30.726,72.4 30.6,72.4 30.6,27.601 30.661,27.601 
		25.774,22.657 	"/>
</g>
</svg>
