<?xml version="1.0" encoding="utf-8"?>
<!-- Generator: Adobe Illustrator 16.0.0, SVG Export Plug-In . SVG Version: 6.00 Build 0)  -->
<!DOCTYPE svg PUBLIC "-//W3C//DTD SVG 1.1//EN" "http://www.w3.org/Graphics/SVG/1.1/DTD/svg11.dtd">
<svg version="1.1" id="Layer_1" xmlns="http://www.w3.org/2000/svg" xmlns:xlink="http://www.w3.org/1999/xlink" x="0px" y="0px"
	 width="53px" height="53px" viewBox="0 0 53 53" enable-background="new 0 0 53 53" xml:space="preserve">
<path fill-rule="evenodd" clip-rule="evenodd" fill="#FFFFFF" d="M24.931,8.822c0.188-0.119,0.395-0.223,0.618-0.308
	c0.206-0.086,0.438-0.163,0.694-0.232L27.658,8h0.926l6.537,0.515h0.026l-0.669,6.072h-0.026L30.85,14.2h-0.104l-0.359,0.053
	l-0.129,0.051l-0.412,0.205c-0.086,0.019-0.154,0.061-0.206,0.13l-0.309,0.334c-0.068,0.086-0.128,0.189-0.181,0.309
	c-0.051,0.104-0.094,0.216-0.128,0.336c-0.034,0.119-0.061,0.247-0.077,0.385c-0.018,0.119-0.026,0.25-0.026,0.387l0.052,3.808
	l5.301,0.052L33.5,26.27l-4.581,0.18v17.525L28.895,44H21.74V26.295H17.88v-6.047h3.705v-0.052l0.026-0.077l0.128-6.459l0.051-0.36
	v-0.18l0.052-0.181c0.017-0.137,0.052-0.266,0.103-0.386c0.035-0.12,0.086-0.231,0.154-0.333c0.068-0.258,0.163-0.49,0.283-0.695
	c0.103-0.223,0.231-0.438,0.386-0.645c0.12-0.188,0.266-0.367,0.437-0.539c0.155-0.189,0.317-0.361,0.489-0.516V9.801L24.931,8.822z
	"/>
</svg>
