<?xml version="1.0" encoding="utf-8"?>
<!-- Generator: Adobe Illustrator 16.0.0, SVG Export Plug-In . SVG Version: 6.00 Build 0)  -->
<!DOCTYPE svg PUBLIC "-//W3C//DTD SVG 1.1//EN" "http://www.w3.org/Graphics/SVG/1.1/DTD/svg11.dtd">
<svg version="1.1" id="Layer_1" xmlns="http://www.w3.org/2000/svg" xmlns:xlink="http://www.w3.org/1999/xlink" x="0px" y="0px"
	 width="50px" height="50px" viewBox="0 0 50 50" enable-background="new 0 0 50 50" xml:space="preserve">
<g>
	<g>
		<path fill="#FFFFFF" d="M32.706,12.499c4.534,0.002,8.769,4.33,5.891,11.404C35.766,30.858,25,37.5,25,37.5
			s-10.767-6.642-13.597-13.597c-2.879-7.074,1.355-11.404,5.891-11.404c3.251,0,6.658,2.227,7.706,7.263
			C26.049,14.726,29.454,12.499,32.706,12.499 M32.707,7.499h-0.002c-3.107,0-5.688,1.086-7.705,2.777
			c-2.017-1.691-4.598-2.777-7.706-2.777c-3.969,0-7.633,1.925-9.801,5.148c-1.412,2.099-3.383,6.597-0.721,13.141
			c3.349,8.23,14.359,15.2,15.603,15.968L25,43.375l2.625-1.619c1.244-0.768,12.253-7.737,15.604-15.968
			c2.662-6.543,0.691-11.041-0.721-13.14C40.34,9.425,36.676,7.5,32.707,7.499L32.707,7.499z"/>
	</g>
</g>
</svg>
