<?xml version="1.0" encoding="utf-8"?>
<!-- Generator: Adobe Illustrator 16.0.0, SVG Export Plug-In . SVG Version: 6.00 Build 0)  -->
<!DOCTYPE svg PUBLIC "-//W3C//DTD SVG 1.1//EN" "http://www.w3.org/Graphics/SVG/1.1/DTD/svg11.dtd">
<svg version="1.1" id="Layer_1" xmlns="http://www.w3.org/2000/svg" xmlns:xlink="http://www.w3.org/1999/xlink" x="0px" y="0px"
	 width="320px" height="320px" viewBox="0 0 320 320" enable-background="new 0 0 320 320" xml:space="preserve">
<polygon fill="#FFFFFF" points="84.799,109.445 71.195,92.471 79.748,92.471 65.759,75.017 73.276,75.017 56.071,53.549 
	38.866,75.017 46.384,75.017 32.395,92.471 40.948,92.471 27.343,109.445 51.021,109.445 51.021,113.845 61.28,113.845 
	61.28,109.445 "/>
<path fill="#FFFFFF" d="M56.072,185.435l16.869,21.047H65.57l13.716,17.113h-8.385l13.337,16.643H61.179v4.312H51.12v-4.312H27.906
	l13.337-16.643h-8.385l13.715-17.113h-7.37L56.072,185.435 M56.072,172.644l-6.242,7.787l-16.869,21.047l-10.422,13.004h7.371
	l-3.294,4.109l-10.421,13.004h8.386l-2.917,3.639l-10.42,13.004h16.663H43.12v4.312h8h10.059h8v-4.312h15.059h16.663l-10.42-13.004
	l-2.917-3.639h8.386l-10.421-13.004l-3.294-4.109h7.371l-10.422-13.004l-16.869-21.047L56.072,172.644L56.072,172.644z"/>
<polygon fill="#FFFFFF" points="156.699,25.575 164.756,41.074 181.986,43.948 169.736,56.4 172.328,73.675 156.699,65.872 
	141.07,73.675 143.662,56.4 131.411,43.948 148.641,41.074 "/>
<g>
	<path fill="#FFFFFF" d="M185.076,213.43l-28.273-14.116L128.53,213.43l4.689-31.251l-22.162-22.527l31.17-5.197l14.576-28.039
		l14.576,28.039l31.17,5.197l-22.162,22.527L185.076,213.43z M156.803,188.248l15.656,7.817l-2.596-17.307l12.273-12.475
		l-17.262-2.879l-8.072-15.526l-8.072,15.526l-17.261,2.879l12.272,12.475l-2.596,17.307L156.803,188.248z"/>
</g>
<g>
	<g>
		<path fill="#FFFFFF" d="M284.241,172.34v-1.061h0.886v-3.121c0-0.607-0.493-1.1-1.101-1.1h-7.297
			c0.012-0.41,0.047-0.561,0.057-0.588c0,0,0.012-0.008,0.031-0.02c0.109-0.031,0.213-0.07,0.318-0.107
			c0.027-0.006,0.047-0.012,0.078-0.018l-0.001-0.008c2.536-0.896,4.153-3.057,4.153-5.687c0-3.309-2.691-6-6-6s-6,2.691-6,6
			c0,0.828,0.671,1.5,1.5,1.5c0.828,0,1.5-0.672,1.5-1.5c0-1.654,1.346-3,3-3s3,1.346,3,3c0,1.492-0.965,2.4-2.011,2.82
			c-0.274,0.07-0.524,0.154-0.743,0.256c-0.044,0.02-0.085,0.041-0.126,0.064c-1.603,0.811-1.748,2.379-1.76,3.287h-7.022
			c-0.607,0-1.1,0.492-1.1,1.1v3.121h0.887v1.061c-14.848,3.922-25.795,17.439-25.795,33.52c0,19.148,15.522,34.67,34.67,34.67
			s34.669-15.521,34.669-34.67C310.035,189.779,299.087,176.26,284.241,172.34z M275.446,229.961
			c-13.496,0-24.438-10.941-24.438-24.438c0-13.498,10.941-24.439,24.438-24.439c13.497,0,24.439,10.941,24.439,24.439
			C299.886,219.02,288.943,229.961,275.446,229.961z"/>
	</g>
</g>
<path fill="#FFFFFF" d="M282.235,55.548v-0.821h0.686v-2.416c0-0.47-0.381-0.851-0.852-0.851h-5.648
	c0.01-0.317,0.036-0.434,0.043-0.455c0.001,0,0.01-0.006,0.025-0.015c0.084-0.024,0.164-0.055,0.246-0.083
	c0.021-0.005,0.036-0.01,0.061-0.015l-0.001-0.005c1.964-0.693,3.215-2.366,3.215-4.403c0-2.561-2.083-4.644-4.645-4.644
	c-2.561,0-4.644,2.083-4.644,4.644c0,0.642,0.52,1.161,1.16,1.161c0.642,0,1.162-0.52,1.162-1.161c0-1.28,1.041-2.322,2.321-2.322
	s2.322,1.042,2.322,2.322c0,1.155-0.747,1.858-1.556,2.184c-0.213,0.054-0.406,0.119-0.576,0.197
	c-0.033,0.015-0.064,0.032-0.097,0.05c-1.241,0.628-1.353,1.841-1.362,2.544h-5.436c-0.471,0-0.852,0.381-0.852,0.851v2.416h0.687
	v0.822c-11.492,3.035-19.966,13.499-19.966,25.945c0,14.821,12.016,26.835,26.836,26.835S302.2,96.314,302.2,81.494
	C302.2,69.047,293.727,58.583,282.235,55.548z"/>
</svg>
