<?xml version="1.0" encoding="utf-8"?>
<!-- Generator: Adobe Illustrator 16.0.0, SVG Export Plug-In . SVG Version: 6.00 Build 0)  -->
<!DOCTYPE svg PUBLIC "-//W3C//DTD SVG 1.1//EN" "http://www.w3.org/Graphics/SVG/1.1/DTD/svg11.dtd">
<svg version="1.1" id="Layer_1" xmlns="http://www.w3.org/2000/svg" xmlns:xlink="http://www.w3.org/1999/xlink" x="0px" y="0px"
	 width="53px" height="53px" viewBox="0 0 53 53" enable-background="new 0 0 53 53" xml:space="preserve">
<g>
	<path fill="#FFFFFF" d="M34.516,10.529H18.968c-4.283,0-7.768,3.484-7.768,7.768v15.676c0,4.283,3.485,7.768,7.768,7.768h15.547
		c4.283,0,7.77-3.484,7.77-7.768V18.297C42.285,14.014,38.799,10.529,34.516,10.529z M18.968,13.406h15.547
		c2.697,0,4.891,2.194,4.891,4.891v2.674h-8.234c-1.207-0.857-2.68-1.366-4.271-1.366c-1.591,0-3.063,0.509-4.27,1.366h-8.554
		v-2.674C14.078,15.601,16.271,13.406,18.968,13.406z M29.965,26.984c0,1.688-1.375,3.062-3.064,3.062
		c-1.688,0-3.062-1.374-3.062-3.062c0-1.689,1.374-3.062,3.062-3.062C28.59,23.922,29.965,25.295,29.965,26.984z M34.516,38.863
		H18.968c-2.697,0-4.891-2.194-4.891-4.891V23.85h6.146c-0.449,0.951-0.701,2.014-0.701,3.135c0,4.068,3.311,7.378,7.379,7.378
		c4.07,0,7.378-3.31,7.378-7.378c0-1.121-0.252-2.184-0.699-3.135h5.826v10.123C39.406,36.669,37.213,38.863,34.516,38.863z"/>
	<path fill="#FFFFFF" d="M37.152,18.682c0,0.475-0.389,0.863-0.863,0.863h-2.667c-0.475,0-0.862-0.389-0.862-0.863v-2.668
		c0-0.474,0.388-0.862,0.862-0.862h2.667c0.475,0,0.863,0.389,0.863,0.862V18.682z"/>
</g>
</svg>
