<?xml version="1.0" encoding="utf-8"?>
<!-- Generator: Adobe Illustrator 16.0.0, SVG Export Plug-In . SVG Version: 6.00 Build 0)  -->
<!DOCTYPE svg PUBLIC "-//W3C//DTD SVG 1.1//EN" "http://www.w3.org/Graphics/SVG/1.1/DTD/svg11.dtd">
<svg version="1.1" id="Layer_1" xmlns="http://www.w3.org/2000/svg" xmlns:xlink="http://www.w3.org/1999/xlink" x="0px" y="0px"
	 width="320px" height="468px" viewBox="0 0 320 468" enable-background="new 0 0 320 468" xml:space="preserve">
<g>
	<path fill="#FFFFFF" d="M10.184,213.095c0-2.625,2.024-4.65,4.649-4.65h30.599c2.325,0,4.2,1.875,4.2,4.2s-1.875,4.199-4.2,4.199
		H19.409v14.325h22.648c2.325,0,4.2,1.875,4.2,4.2c0,2.324-1.875,4.199-4.2,4.199H19.409v17.174c0,2.551-2.025,4.576-4.575,4.576
		c-2.625,0-4.649-2.025-4.649-4.576V213.095z"/>
	<path fill="#FFFFFF" d="M59.908,212.645c0-2.55,2.025-4.575,4.65-4.575c2.55,0,4.574,2.025,4.574,4.575v44.097
		c0,2.551-2.024,4.576-4.574,4.576c-2.625,0-4.65-2.025-4.65-4.576V212.645z"/>
	<path fill="#FFFFFF" d="M83.158,212.645c0-2.55,2.024-4.575,4.649-4.575c2.55,0,4.575,2.025,4.575,4.575v39.898h23.773
		c2.325,0,4.2,1.875,4.2,4.199c0,2.326-1.875,4.201-4.2,4.201H87.807c-2.625,0-4.649-2.025-4.649-4.65V212.645z"/>
	<path fill="#FFFFFF" d="M134.982,216.995h-12.75c-2.399,0-4.274-1.95-4.274-4.274c0-2.325,1.875-4.275,4.274-4.275h34.874
		c2.325,0,4.199,1.95,4.199,4.275c0,2.324-1.874,4.274-4.199,4.274h-12.824v39.748c0,2.551-2.101,4.576-4.65,4.576
		s-4.649-2.025-4.649-4.576V216.995z"/>
	<path fill="#FFFFFF" d="M170.682,256.293v-43.198c0-2.625,2.025-4.65,4.65-4.65h30.523c2.25,0,4.125,1.875,4.125,4.125
		c0,2.325-1.875,4.125-4.125,4.125h-25.949v13.649h22.574c2.25,0,4.125,1.875,4.125,4.2c0,2.249-1.875,4.049-4.125,4.049h-22.574
		v14.1h26.324c2.25,0,4.125,1.875,4.125,4.125c0,2.324-1.875,4.125-4.125,4.125h-30.898
		C172.707,260.943,170.682,258.918,170.682,256.293z"/>
	<path fill="#FFFFFF" d="M220.932,213.095c0-2.625,2.023-4.65,4.648-4.65h18.75c6.6,0,11.773,1.95,15.148,5.25
		c2.775,2.85,4.352,6.75,4.352,11.324v0.15c0,8.399-4.875,13.499-11.926,15.674l10.051,12.674c0.898,1.125,1.5,2.1,1.5,3.525
		c0,2.551-2.176,4.275-4.426,4.275c-2.1,0-3.449-0.975-4.5-2.4l-12.75-16.273h-11.623v14.098c0,2.551-2.025,4.576-4.576,4.576
		c-2.625,0-4.648-2.025-4.648-4.576V213.095z M243.654,234.469c6.6,0,10.801-3.45,10.801-8.775v-0.149c0-5.625-4.051-8.7-10.875-8.7
		h-13.424v17.625H243.654z"/>
	<path fill="#FFFFFF" d="M273.805,255.094c-1.049-0.75-1.799-2.025-1.799-3.525c0-2.4,1.949-4.275,4.35-4.275
		c1.275,0,2.1,0.375,2.699,0.826c4.35,3.449,9,5.398,14.699,5.398c5.701,0,9.301-2.699,9.301-6.6v-0.15
		c0-3.748-2.1-5.773-11.85-8.023c-11.174-2.701-17.475-6-17.475-15.674v-0.15c0-9,7.5-15.225,17.924-15.225
		c6.6,0,11.926,1.726,16.65,4.875c1.049,0.6,2.023,1.875,2.023,3.675c0,2.4-1.949,4.274-4.35,4.274
		c-0.898,0-1.648-0.225-2.398-0.675c-4.051-2.625-7.951-3.975-12.076-3.975c-5.398,0-8.549,2.775-8.549,6.225v0.15
		c0,4.05,2.4,5.85,12.525,8.249c11.1,2.7,16.799,6.674,16.799,15.375v0.148c0,9.826-7.725,15.676-18.75,15.676
		C286.404,261.693,279.656,259.443,273.805,255.094z"/>
</g>
</svg>
