<?xml version="1.0" encoding="utf-8"?>
<!-- Generator: Adobe Illustrator 16.0.0, SVG Export Plug-In . SVG Version: 6.00 Build 0)  -->
<!DOCTYPE svg PUBLIC "-//W3C//DTD SVG 1.1//EN" "http://www.w3.org/Graphics/SVG/1.1/DTD/svg11.dtd">
<svg version="1.1" id="Layer_1" xmlns="http://www.w3.org/2000/svg" xmlns:xlink="http://www.w3.org/1999/xlink" x="0px" y="0px"
	 width="320px" height="468px" viewBox="0 0 320 468" enable-background="new 0 0 320 468" xml:space="preserve">
<g>
	<path fill="#FFFFFF" d="M56.47,129.548v-21.565c0-1.311,1.011-2.322,2.321-2.322h15.239c1.123,0,2.059,0.936,2.059,2.059
		c0,1.161-0.936,2.06-2.059,2.06H61.075v6.814h11.27c1.123,0,2.059,0.937,2.059,2.097c0,1.123-0.936,2.022-2.059,2.022h-11.27v7.038
		h13.142c1.123,0,2.059,0.936,2.059,2.06c0,1.161-0.936,2.059-2.059,2.059H58.791C57.48,131.869,56.47,130.858,56.47,129.548z"/>
	<path fill="#FFFFFF" d="M80.882,128.2l7.788-9.66l-7.338-9.098c-0.375-0.487-0.711-1.086-0.711-1.723
		c0-1.272,0.973-2.246,2.284-2.246c0.974,0,1.535,0.374,2.097,1.123l6.627,8.725l6.552-8.575c0.599-0.823,1.235-1.273,2.246-1.273
		c1.011,0,2.097,0.824,2.097,2.097c0,0.673-0.263,1.198-0.711,1.76l-7.338,9.135l7.713,9.622c0.374,0.487,0.711,1.048,0.711,1.722
		c0,1.273-0.974,2.247-2.284,2.247c-0.973,0-1.535-0.375-2.096-1.124l-7.039-9.173l-6.927,9.023
		c-0.636,0.824-1.235,1.273-2.246,1.273c-1.048,0-2.097-0.824-2.097-2.134C80.208,129.286,80.47,128.762,80.882,128.2z"/>
	<path fill="#FFFFFF" d="M108.289,107.983c0-1.311,1.011-2.322,2.321-2.322h8.013c6.14,0,9.959,3.482,9.959,8.762v0.075
		c0,5.878-4.718,8.948-10.483,8.948h-5.204v6.328c0,1.272-1.011,2.284-2.284,2.284c-1.311,0-2.321-1.011-2.321-2.284V107.983z
		 M118.249,119.29c3.482,0,5.654-1.947,5.654-4.68v-0.075c0-3.071-2.21-4.681-5.654-4.681h-5.354v9.436H118.249z"/>
	<path fill="#FFFFFF" d="M132.141,118.84v-0.075c0-7.376,5.69-13.553,13.74-13.553s13.665,6.103,13.665,13.479v0.075
		c0,7.375-5.69,13.554-13.74,13.554C137.757,132.319,132.141,126.216,132.141,118.84z M154.717,118.84v-0.075
		c0-5.092-3.706-9.322-8.911-9.322c-5.204,0-8.835,4.156-8.835,9.248v0.075c0,5.092,3.706,9.286,8.91,9.286
		S154.717,123.932,154.717,118.84z"/>
	<path fill="#FFFFFF" d="M164.266,128.949c-0.525-0.374-0.899-1.011-0.899-1.76c0-1.198,0.975-2.134,2.172-2.134
		c0.637,0,1.049,0.188,1.349,0.412c2.171,1.722,4.493,2.695,7.339,2.695c2.845,0,4.642-1.348,4.642-3.294v-0.075
		c0-1.872-1.048-2.882-5.915-4.006c-5.579-1.348-8.724-2.995-8.724-7.825v-0.075c0-4.493,3.743-7.601,8.948-7.601
		c3.295,0,5.952,0.862,8.312,2.434c0.524,0.3,1.011,0.937,1.011,1.835c0,1.199-0.973,2.134-2.171,2.134
		c-0.45,0-0.824-0.111-1.199-0.337c-2.021-1.31-3.969-1.983-6.027-1.983c-2.696,0-4.268,1.385-4.268,3.107v0.075
		c0,2.022,1.197,2.92,6.252,4.118c5.541,1.348,8.387,3.332,8.387,7.675v0.075c0,4.905-3.856,7.825-9.36,7.825
		C170.556,132.244,167.186,131.121,164.266,128.949z"/>
	<path fill="#FFFFFF" d="M188.491,120.75v-12.992c0-1.272,1.01-2.284,2.32-2.284c1.273,0,2.284,1.012,2.284,2.284v12.804
		c0,4.868,2.509,7.451,6.627,7.451c4.081,0,6.59-2.434,6.59-7.264v-12.992c0-1.272,1.011-2.284,2.321-2.284
		c1.273,0,2.283,1.012,2.283,2.284v12.768c0,7.825-4.418,11.756-11.27,11.756C192.834,132.282,188.491,128.35,188.491,120.75z"/>
	<path fill="#FFFFFF" d="M217.245,107.983c0-1.311,1.012-2.322,2.321-2.322h9.36c3.295,0,5.878,0.974,7.563,2.621
		c1.386,1.423,2.171,3.37,2.171,5.654v0.075c0,4.193-2.434,6.739-5.952,7.825l5.017,6.327c0.449,0.562,0.749,1.049,0.749,1.76
		c0,1.273-1.087,2.134-2.209,2.134c-1.049,0-1.723-0.486-2.246-1.198l-6.365-8.124h-5.804v7.039c0,1.272-1.011,2.284-2.284,2.284
		c-1.31,0-2.321-1.011-2.321-2.284V107.983z M228.591,118.653c3.294,0,5.391-1.722,5.391-4.381v-0.075
		c0-2.808-2.021-4.343-5.429-4.343h-6.702v8.799H228.591z"/>
	<path fill="#FFFFFF" d="M244.315,129.548v-21.565c0-1.311,1.012-2.322,2.322-2.322h15.238c1.123,0,2.059,0.936,2.059,2.059
		c0,1.161-0.936,2.06-2.059,2.06h-12.955v6.814h11.271c1.122,0,2.059,0.937,2.059,2.097c0,1.123-0.937,2.022-2.059,2.022h-11.271
		v7.038h13.143c1.123,0,2.059,0.936,2.059,2.06c0,1.161-0.936,2.059-2.059,2.059h-15.426
		C245.327,131.869,244.315,130.858,244.315,129.548z"/>
	<path fill="#FFFFFF" d="M150.037,181.156l15.313-31.375c0.337-0.674,0.898-1.048,1.646-1.048c0.974,0,1.761,0.786,1.761,1.723
		c0,0.335-0.112,0.673-0.188,0.898l-15.351,31.375c-0.338,0.674-0.861,1.048-1.61,1.048c-0.973,0-1.797-0.786-1.797-1.722
		C149.812,181.717,149.925,181.381,150.037,181.156z"/>
	<path fill="#FFFFFF" d="M53.811,212.695v-0.075c0-7.45,5.579-13.553,13.516-13.553c4.044,0,6.702,1.197,8.986,2.958
		c0.487,0.375,0.898,1.012,0.898,1.835c0,1.272-1.01,2.247-2.284,2.247c-0.636,0-1.086-0.226-1.385-0.45
		c-1.797-1.46-3.744-2.358-6.252-2.358c-4.98,0-8.649,4.118-8.649,9.248v0.074c0,5.13,3.632,9.286,8.649,9.286
		c2.771,0,4.643-0.898,6.552-2.51c0.337-0.299,0.824-0.523,1.386-0.523c1.161,0,2.171,0.974,2.171,2.135
		c0,0.711-0.337,1.272-0.749,1.647c-2.471,2.171-5.279,3.52-9.51,3.52C59.501,226.175,53.811,220.222,53.811,212.695z"/>
	<path fill="#FFFFFF" d="M80.694,212.695v-0.075c0-7.375,5.691-13.553,13.741-13.553c8.05,0,13.666,6.103,13.666,13.479v0.074
		c0,7.376-5.69,13.555-13.74,13.555C86.311,226.175,80.694,220.071,80.694,212.695z M103.271,212.695v-0.075
		c0-5.092-3.707-9.322-8.911-9.322s-8.836,4.156-8.836,9.248v0.074c0,5.092,3.707,9.286,8.911,9.286
		S103.271,217.787,103.271,212.695z"/>
	<path fill="#FFFFFF" d="M113.681,201.688c0-1.274,1.011-2.322,2.321-2.322h0.486c1.124,0,1.76,0.562,2.396,1.348l13.104,16.96
		v-16.1c0-1.235,1.011-2.247,2.246-2.247c1.273,0,2.284,1.012,2.284,2.247v22.016c0,1.273-0.974,2.283-2.247,2.283h-0.187
		c-1.086,0-1.76-0.562-2.396-1.385l-13.479-17.448v16.624c0,1.235-1.01,2.246-2.247,2.246c-1.273,0-2.284-1.011-2.284-2.246V201.688
		z"/>
	<path fill="#FFFFFF" d="M149.699,203.784h-6.365c-1.198,0-2.134-0.974-2.134-2.134c0-1.161,0.936-2.135,2.134-2.135h17.411
		c1.16,0,2.096,0.975,2.096,2.135c0,1.16-0.936,2.134-2.096,2.134h-6.403v19.844c0,1.272-1.048,2.283-2.321,2.283
		s-2.321-1.011-2.321-2.283V203.784z"/>
	<path fill="#FFFFFF" d="M167.522,201.838c0-1.311,1.01-2.323,2.32-2.323h9.361c3.294,0,5.877,0.975,7.562,2.622
		c1.386,1.423,2.173,3.37,2.173,5.653v0.075c0,4.193-2.434,6.74-5.953,7.826l5.017,6.326c0.449,0.562,0.749,1.049,0.749,1.76
		c0,1.273-1.086,2.134-2.209,2.134c-1.048,0-1.722-0.485-2.247-1.198l-6.364-8.123h-5.804v7.038c0,1.272-1.011,2.283-2.284,2.283
		c-1.311,0-2.32-1.011-2.32-2.283V201.838z M178.866,212.509c3.294,0,5.393-1.723,5.393-4.381v-0.075
		c0-2.808-2.023-4.343-5.43-4.343h-6.702v8.799H178.866z"/>
	<path fill="#FFFFFF" d="M193.096,222.729l9.733-21.715c0.524-1.161,1.461-1.872,2.771-1.872h0.225c1.311,0,2.21,0.711,2.733,1.872
		l9.735,21.715c0.188,0.338,0.262,0.676,0.262,0.975c0,1.235-0.936,2.208-2.171,2.208c-1.087,0-1.836-0.636-2.247-1.609
		l-2.134-4.905h-12.731l-2.208,5.055c-0.375,0.937-1.16,1.46-2.135,1.46c-1.197,0-2.134-0.936-2.134-2.134
		C192.795,223.44,192.908,223.104,193.096,222.729z M210.243,215.315l-4.605-10.595l-4.605,10.595H210.243z"/>
	<path fill="#FFFFFF" d="M222.562,222.805c-0.523-0.375-0.898-1.012-0.898-1.761c0-1.197,0.974-2.134,2.172-2.134
		c0.637,0,1.048,0.188,1.348,0.412c2.171,1.722,4.492,2.695,7.338,2.695c2.847,0,4.644-1.348,4.644-3.295v-0.074
		c0-1.872-1.048-2.883-5.916-4.006c-5.578-1.349-8.724-2.996-8.724-7.826v-0.074c0-4.493,3.744-7.601,8.948-7.601
		c3.295,0,5.953,0.862,8.312,2.434c0.523,0.3,1.01,0.937,1.01,1.835c0,1.198-0.974,2.134-2.171,2.134
		c-0.449,0-0.823-0.112-1.198-0.337c-2.021-1.31-3.969-1.983-6.028-1.983c-2.695,0-4.268,1.385-4.268,3.106v0.075
		c0,2.022,1.198,2.921,6.253,4.118c5.541,1.348,8.386,3.332,8.386,7.676v0.075c0,4.905-3.856,7.824-9.36,7.824
		C228.852,226.099,225.482,224.976,222.562,222.805z"/>
	<path fill="#FFFFFF" d="M253.077,203.784h-6.366c-1.196,0-2.133-0.974-2.133-2.134c0-1.161,0.937-2.135,2.133-2.135h17.411
		c1.16,0,2.097,0.975,2.097,2.135c0,1.16-0.937,2.134-2.097,2.134h-6.402v19.844c0,1.272-1.049,2.283-2.321,2.283
		c-1.273,0-2.321-1.011-2.321-2.283V203.784z"/>
</g>
</svg>
