<?xml version="1.0" encoding="utf-8"?>
<!-- Generator: Adobe Illustrator 16.0.0, SVG Export Plug-In . SVG Version: 6.00 Build 0)  -->
<!DOCTYPE svg PUBLIC "-//W3C//DTD SVG 1.1//EN" "http://www.w3.org/Graphics/SVG/1.1/DTD/svg11.dtd">
<svg version="1.1" id="Layer_1" xmlns="http://www.w3.org/2000/svg" xmlns:xlink="http://www.w3.org/1999/xlink" x="0px" y="0px"
	 width="320px" height="468px" viewBox="0 0 320 468" enable-background="new 0 0 320 468" xml:space="preserve">
<g>
	<path fill="#FFFFFF" d="M32.69,176.721c-1.05-0.75-1.8-2.025-1.8-3.525c0-2.399,1.95-4.274,4.35-4.274
		c1.275,0,2.101,0.375,2.7,0.825c4.35,3.449,9,5.399,14.699,5.399c5.7,0,9.3-2.7,9.3-6.6v-0.15c0-3.749-2.1-5.774-11.85-8.024
		c-11.174-2.7-17.474-6-17.474-15.674v-0.15c0-9,7.499-15.225,17.924-15.225c6.6,0,11.925,1.726,16.649,4.875
		c1.05,0.6,2.024,1.875,2.024,3.675c0,2.4-1.949,4.274-4.35,4.274c-0.899,0-1.649-0.225-2.399-0.675
		c-4.05-2.625-7.95-3.975-12.075-3.975c-5.399,0-8.549,2.775-8.549,6.225v0.15c0,4.05,2.399,5.85,12.524,8.249
		c11.1,2.7,16.799,6.675,16.799,15.375v0.149c0,9.825-7.725,15.675-18.749,15.675C45.29,183.32,38.541,181.07,32.69,176.721z"/>
	<path fill="#FFFFFF" d="M82.041,134.272c0-2.55,2.024-4.575,4.649-4.575c2.55,0,4.575,2.025,4.575,4.575v17.624h25.049v-17.624
		c0-2.55,2.024-4.575,4.574-4.575c2.625,0,4.65,2.025,4.65,4.575v44.098c0,2.55-2.025,4.575-4.65,4.575
		c-2.55,0-4.574-2.025-4.574-4.575v-17.924H91.265v17.924c0,2.55-2.025,4.575-4.575,4.575c-2.625,0-4.649-2.025-4.649-4.575V134.272
		z"/>
	<path fill="#FFFFFF" d="M136.041,176.57l19.499-43.498c1.05-2.325,2.925-3.75,5.55-3.75h0.449c2.625,0,4.426,1.425,5.475,3.75
		l19.5,43.498c0.375,0.675,0.525,1.351,0.525,1.95c0,2.475-1.875,4.425-4.35,4.425c-2.176,0-3.676-1.275-4.5-3.225l-4.275-9.825
		h-25.5l-4.425,10.125c-0.75,1.875-2.324,2.925-4.274,2.925c-2.4,0-4.275-1.875-4.275-4.274
		C135.44,177.995,135.666,177.32,136.041,176.57z M170.389,161.721l-9.225-21.224l-9.224,21.224H170.389z"/>
	<path fill="#FFFFFF" d="M197.016,134.723c0-2.625,2.023-4.65,4.648-4.65h18.75c6.6,0,11.773,1.95,15.148,5.25
		c2.775,2.85,4.352,6.75,4.352,11.324v0.15c0,8.399-4.875,13.499-11.926,15.674l10.051,12.675c0.898,1.125,1.5,2.1,1.5,3.525
		c0,2.55-2.176,4.274-4.426,4.274c-2.1,0-3.449-0.975-4.5-2.4l-12.75-16.273H206.24v14.099c0,2.55-2.025,4.575-4.576,4.575
		c-2.625,0-4.648-2.025-4.648-4.575V134.723z M219.738,156.097c6.6,0,10.801-3.45,10.801-8.775v-0.149c0-5.625-4.051-8.7-10.875-8.7
		H206.24v17.625H219.738z"/>
	<path fill="#FFFFFF" d="M251.238,177.921v-43.198c0-2.625,2.025-4.65,4.65-4.65h30.523c2.25,0,4.125,1.875,4.125,4.125
		c0,2.325-1.875,4.125-4.125,4.125h-25.949v13.649h22.574c2.25,0,4.125,1.875,4.125,4.2c0,2.249-1.875,4.05-4.125,4.05h-22.574
		v14.099h26.324c2.25,0,4.125,1.875,4.125,4.125c0,2.325-1.875,4.125-4.125,4.125h-30.898
		C253.264,182.57,251.238,180.545,251.238,177.921z"/>
	<path fill="#FFFFFF" d="M141.928,265.379l30.673-62.848c0.676-1.35,1.801-2.1,3.301-2.1c1.949,0,3.523,1.575,3.523,3.45
		c0,0.675-0.225,1.35-0.375,1.8l-30.748,62.848c-0.676,1.35-1.726,2.1-3.226,2.1c-1.949,0-3.6-1.575-3.6-3.45
		C141.478,266.504,141.703,265.829,141.928,265.379z"/>
	<path fill="#FFFFFF" d="M64.078,332.89c-1.05-0.75-1.8-2.025-1.8-3.525c0-2.399,1.95-4.274,4.35-4.274
		c1.275,0,2.101,0.375,2.7,0.825c4.35,3.449,9,5.399,14.699,5.399c5.7,0,9.3-2.7,9.3-6.6v-0.15c0-3.749-2.1-5.774-11.85-8.024
		c-11.174-2.7-17.474-6-17.474-15.674v-0.15c0-9,7.499-15.225,17.924-15.225c6.6,0,11.925,1.726,16.649,4.875
		c1.05,0.6,2.024,1.875,2.024,3.675c0,2.4-1.949,4.274-4.35,4.274c-0.899,0-1.649-0.225-2.399-0.675
		c-4.05-2.625-7.95-3.975-12.075-3.975c-5.399,0-8.549,2.775-8.549,6.225v0.15c0,4.05,2.399,5.85,12.524,8.249
		c11.1,2.7,16.799,6.675,16.799,15.375v0.149c0,9.825-7.725,15.675-18.749,15.675C76.677,339.489,69.928,337.239,64.078,332.89z"/>
	<path fill="#FFFFFF" d="M109.829,332.739l19.499-43.498c1.05-2.325,2.925-3.75,5.55-3.75h0.45c2.625,0,4.425,1.425,5.475,3.75
		l19.499,43.498c0.375,0.675,0.525,1.351,0.525,1.95c0,2.475-1.875,4.425-4.351,4.425c-2.175,0-3.675-1.275-4.499-3.225
		l-4.275-9.825h-25.499l-4.425,10.125c-0.75,1.875-2.324,2.925-4.274,2.925c-2.4,0-4.275-1.875-4.275-4.274
		C109.228,334.164,109.454,333.489,109.829,332.739z M144.177,317.89l-9.225-21.224l-9.225,21.224H144.177z"/>
	<path fill="#FFFFFF" d="M180.102,335.739l-18.373-43.198c-0.301-0.675-0.525-1.35-0.525-2.175c0-2.475,2.025-4.5,4.65-4.5
		c2.4,0,3.975,1.351,4.725,3.3l15.148,37.874l15.375-38.174c0.6-1.575,2.25-3,4.426-3c2.549,0,4.574,1.95,4.574,4.425
		c0,0.675-0.225,1.425-0.451,1.95l-18.449,43.498c-0.975,2.325-2.699,3.75-5.324,3.75h-0.525
		C182.803,339.489,181.078,338.064,180.102,335.739z"/>
	<path fill="#FFFFFF" d="M219.852,334.09v-43.198c0-2.625,2.025-4.65,4.65-4.65h30.523c2.25,0,4.125,1.875,4.125,4.125
		c0,2.325-1.875,4.125-4.125,4.125h-25.949v13.649h22.574c2.25,0,4.125,1.875,4.125,4.199c0,2.25-1.875,4.051-4.125,4.051h-22.574
		v14.099H255.4c2.25,0,4.125,1.875,4.125,4.125c0,2.325-1.875,4.125-4.125,4.125h-30.898
		C221.877,338.739,219.852,336.714,219.852,334.09z"/>
</g>
</svg>
