<?xml version="1.0" encoding="utf-8"?>
<!-- Generator: Adobe Illustrator 16.0.0, SVG Export Plug-In . SVG Version: 6.00 Build 0)  -->
<!DOCTYPE svg PUBLIC "-//W3C//DTD SVG 1.1//EN" "http://www.w3.org/Graphics/SVG/1.1/DTD/svg11.dtd">
<svg version="1.1" id="Layer_1" xmlns="http://www.w3.org/2000/svg" xmlns:xlink="http://www.w3.org/1999/xlink" x="0px" y="0px"
	 width="53px" height="53px" viewBox="0 0 53 53" enable-background="new 0 0 53 53" xml:space="preserve">
<path fill-rule="evenodd" clip-rule="evenodd" fill="#FFFFFF" d="M12.71,15.559c3.513,1.34,6.894,2.865,10.146,4.581
	c0.489,0.245,0.955,0.538,1.396,0.882c0.556,0.475,1.111,0.957,1.667,1.447c0.751-1.881,1.633-3.678,2.647-5.393
	c0.49-0.865,1.07-1.666,1.74-2.4c0.555-0.638,1.158-1.232,1.812-1.789l-0.588,1.151c0.882-0.734,1.919-1.217,3.111-1.445
	c-0.016,0.245-0.114,0.44-0.293,0.589c-0.066,0.064-0.131,0.129-0.197,0.195c-0.081,0.066-0.163,0.122-0.245,0.172
	c-0.098,0.064-0.204,0.113-0.317,0.146c-0.246,0.146-0.499,0.278-0.76,0.393c0.62-0.181,1.2-0.368,1.739-0.564
	c0.229-0.115,0.474-0.195,0.735-0.244c0.097-0.017,0.203-0.025,0.318-0.025c0.066-0.032,0.139-0.049,0.221-0.049
	c0.131,0.017,0.262,0.041,0.392,0.074c0.05,0.049,0.106,0.105,0.172,0.171c0.081,0.278-0.065,0.515-0.44,0.711
	c-0.344,0.163-0.695,0.31-1.055,0.441c-0.261,0.065-0.521,0.138-0.783,0.22c-0.377,0.115-0.752,0.237-1.128,0.367
	c1.716-0.113,3.275,0.285,4.681,1.201c0.637,0.424,1.209,0.932,1.715,1.52c0.964,1.11,1.635,2.4,2.01,3.871
	c0.081,0.295,0.154,0.596,0.221,0.907c1.062,0.277,2.148,0.286,3.259,0.024c0.343-0.115,0.687-0.244,1.028-0.393
	c0.146-0.049,0.286-0.106,0.418-0.171c-0.457,0.947-1.178,1.617-2.157,2.009c-0.44,0.18-0.898,0.311-1.372,0.393
	c-0.262,0.098-0.523,0.162-0.784,0.195c0.882,0.344,1.804,0.523,2.77,0.539c0.392,0,0.784,0,1.175,0
	c0.164-0.032,0.336-0.064,0.516-0.098c-0.703,0.801-1.568,1.332-2.598,1.592c-0.457,0.066-0.906,0.131-1.348,0.197
	c-0.262,0-0.515,0.008-0.76,0.024c-0.588,2.467-1.748,4.606-3.48,6.421c-0.914,0.963-1.911,1.82-2.988,2.572
	c-2.156,1.552-4.525,2.646-7.105,3.283c-2.695,0.686-5.433,0.857-8.209,0.515c-3.823-0.522-7.212-2.025-10.17-4.509
	c-1.16-0.963-2.172-2.042-3.038-3.235c1.454,1.405,3.186,2.288,5.194,2.647c1.046,0.179,2.091,0.221,3.137,0.123
	c1.617-0.131,3.071-0.621,4.362-1.471c0.735-0.49,1.42-1.062,2.058-1.716c-0.801,0.212-1.543,0.058-2.23-0.466
	c-0.261-0.229-0.432-0.531-0.514-0.905c-0.131-0.638,0.073-1.128,0.612-1.472c0.294-0.18,0.589-0.35,0.882-0.515
	c-1.389,0.181-2.605-0.163-3.651-1.028c-0.311-0.245-0.596-0.522-0.858-0.834c-0.146-0.178-0.277-0.359-0.392-0.539
	c0.523-0.539,1.135-0.857,1.838-0.955c0.294-0.049,0.597-0.09,0.906-0.123c-1.175-0.229-2.237-0.76-3.185-1.594
	c-0.523-0.457-0.882-1.012-1.078-1.664c-0.066-0.245-0.131-0.482-0.197-0.711l2.45-0.27c-1.144-0.539-2.058-1.348-2.744-2.426
	c-0.017-0.033-0.033-0.066-0.049-0.099c-0.359-0.589-0.556-1.2-0.588-1.838C12.718,15.982,12.71,15.771,12.71,15.559z"/>
</svg>
