<?xml version="1.0" encoding="utf-8"?>
<!-- Generator: Adobe Illustrator 16.0.0, SVG Export Plug-In . SVG Version: 6.00 Build 0)  -->
<!DOCTYPE svg PUBLIC "-//W3C//DTD SVG 1.1//EN" "http://www.w3.org/Graphics/SVG/1.1/DTD/svg11.dtd">
<svg version="1.1" id="Layer_1" xmlns="http://www.w3.org/2000/svg" xmlns:xlink="http://www.w3.org/1999/xlink" x="0px" y="0px"
	 width="50px" height="50px" viewBox="0 0 50 50" enable-background="new 0 0 50 50" xml:space="preserve">
<path fill="#FFFFFF" d="M46.314,32.439c1.16-2.651,1.835-5.561,1.922-8.614c0.186-2.319,0.169-4.989-0.203-7.993
	c-0.097-0.782-0.729-1.39-1.514-1.457c-0.785-0.062-1.51,0.426-1.737,1.181c-3.002,9.973-11.556,11.477-11.913,11.535
	c-0.86,0.133-1.474,0.906-1.406,1.775c0.066,0.868,0.791,1.539,1.662,1.539h3.804c1.525,0.109,1.221,1.124,0.751,1.797
	c-1.305,1.826-2.994,3.357-4.947,4.48c-0.021,0.006-0.043,0.016-0.068,0.028c-1.182,0.59-3.688,0.886-3.752-1.589V15.701
	c0-1.975,0.344-3.059,1.398-4.84l-0.005,0.002c0.664-1.004,1.052-2.206,1.052-3.5C31.357,3.849,28.509,1,24.995,1
	c-3.515,0-6.363,2.849-6.363,6.363c0,1.339,0.416,2.58,1.121,3.604c0.899,1.537,1.259,2.566,1.324,4.151v19.738
	c0.121,2.771-2.533,2.466-3.755,1.855c-0.02-0.01-0.037-0.017-0.053-0.022c-1.933-1.107-3.606-2.617-4.907-4.414
	c-0.01-0.016-0.018-0.029-0.029-0.045c-0.48-0.672-0.813-1.713,0.733-1.824h3.811c0.002,0,0.005,0,0.007,0
	c0.921,0,1.667-0.746,1.667-1.668c0-0.848-0.634-1.548-1.454-1.652c-0.742-0.133-8.95-1.803-11.877-11.529
	c-0.228-0.754-0.95-1.244-1.738-1.181c-0.785,0.067-1.417,0.674-1.513,1.457c-0.36,2.907-0.386,5.5-0.22,7.766
	c0.061,3.224,0.779,6.288,2.028,9.066c0.517,1.249,0.938,1.936,0.992,2.021c0.047,0.076,0.102,0.145,0.16,0.21
	c3.179,5.413,8.481,9.431,14.757,10.903l-0.045-0.001c3.533,0.692,4.21,2.756,5.069,3.132l0,0c0.093,0.047,0.188,0.07,0.287,0.07
	c0.148,0,0.292-0.055,0.426-0.156c0.796-0.535,1.595-2.395,4.913-3.046l-0.028,0.001c6.265-1.471,11.56-5.475,14.739-10.873
	c0.068-0.074,0.133-0.152,0.188-0.24C45.289,34.596,45.758,33.831,46.314,32.439z"/>
</svg>
