<?xml version="1.0" encoding="utf-8"?>
<!-- Generator: Adobe Illustrator 16.0.0, SVG Export Plug-In . SVG Version: 6.00 Build 0)  -->
<!DOCTYPE svg PUBLIC "-//W3C//DTD SVG 1.1//EN" "http://www.w3.org/Graphics/SVG/1.1/DTD/svg11.dtd">
<svg version="1.1" id="Layer_1" xmlns="http://www.w3.org/2000/svg" xmlns:xlink="http://www.w3.org/1999/xlink" x="0px" y="0px"
	 width="320px" height="100px" viewBox="0 0 320 100" enable-background="new 0 0 320 100" xml:space="preserve">
<g>
	
		<line fill="none" stroke="#E6E7E8" stroke-width="11" stroke-linecap="round" stroke-miterlimit="10" x1="38.777" y1="49.918" x2="34.82" y2="49.918"/>
	
		<line fill="none" stroke="#414042" stroke-width="11" stroke-linecap="round" stroke-miterlimit="10" x1="122.209" y1="49.918" x2="114.839" y2="49.918"/>
	<line fill="none" stroke="#414042" stroke-width="11" stroke-miterlimit="10" x1="122.209" y1="49.918" x2="111.286" y2="49.918"/>
	<line fill="none" stroke="#58595B" stroke-width="11" stroke-miterlimit="10" x1="111.286" y1="49.918" x2="100.362" y2="49.918"/>
	<line fill="none" stroke="#6D6E71" stroke-width="11" stroke-miterlimit="10" x1="100.362" y1="49.918" x2="89.438" y2="49.918"/>
	<line fill="none" stroke="#939598" stroke-width="11" stroke-miterlimit="10" x1="89.438" y1="49.918" x2="78.515" y2="49.918"/>
	<line fill="none" stroke="#A7A9AC" stroke-width="11" stroke-miterlimit="10" x1="78.515" y1="49.918" x2="67.591" y2="49.918"/>
	<line fill="none" stroke="#BCBEC0" stroke-width="11" stroke-miterlimit="10" x1="67.591" y1="49.918" x2="56.667" y2="49.918"/>
	<line fill="none" stroke="#D1D3D4" stroke-width="11" stroke-miterlimit="10" x1="56.667" y1="49.918" x2="45.744" y2="49.918"/>
	<line fill="none" stroke="#E6E7E8" stroke-width="11" stroke-miterlimit="10" x1="45.744" y1="49.918" x2="34.82" y2="49.918"/>
</g>
<g>
	
		<line fill="none" stroke="#E6E7E8" stroke-width="10" stroke-linecap="round" stroke-miterlimit="10" x1="281.225" y1="49.918" x2="285.18" y2="49.918"/>
	
		<line fill="none" stroke="#58595B" stroke-width="10" stroke-linecap="round" stroke-miterlimit="10" x1="197.791" y1="49.918" x2="205.16" y2="49.918"/>
	<line fill="none" stroke="#58595B" stroke-width="10" stroke-miterlimit="10" x1="197.791" y1="49.918" x2="208.715" y2="49.918"/>
	<line fill="none" stroke="#6D6E71" stroke-width="10" stroke-miterlimit="10" x1="208.715" y1="49.918" x2="219.639" y2="49.918"/>
	<line fill="none" stroke="#58595B" stroke-width="10" stroke-miterlimit="10" x1="219.639" y1="49.918" x2="230.562" y2="49.918"/>
	<line fill="none" stroke="#A7A9AC" stroke-width="10" stroke-miterlimit="10" x1="230.562" y1="49.918" x2="241.484" y2="49.918"/>
	<line fill="none" stroke="#58595B" stroke-width="10" stroke-miterlimit="10" x1="241.484" y1="49.918" x2="252.408" y2="49.918"/>
	<line fill="none" stroke="#BCBEC0" stroke-width="10" stroke-miterlimit="10" x1="252.408" y1="49.918" x2="263.332" y2="49.918"/>
	<line fill="none" stroke="#58595B" stroke-width="10" stroke-miterlimit="10" x1="263.332" y1="49.918" x2="274.258" y2="49.918"/>
	<line fill="none" stroke="#E6E7E8" stroke-width="10" stroke-miterlimit="10" x1="274.258" y1="49.918" x2="285.18" y2="49.918"/>
</g>
<polygon stroke="#FFFFFF" stroke-width="7.1455" stroke-linecap="round" stroke-miterlimit="10" points="93.905,61.842 78.514,88.5 
	63.124,61.842 "/>
<polygon stroke="#FFFFFF" stroke-width="7.1455" stroke-linecap="round" stroke-miterlimit="10" points="63.123,38.156 78.515,11.5 
	93.906,38.156 "/>
<polygon stroke="#FFFFFF" stroke-width="7.1455" stroke-linecap="round" stroke-miterlimit="10" points="256.877,61.842 
	241.484,88.5 226.094,61.842 "/>
<polygon stroke="#FFFFFF" stroke-width="7.1455" stroke-linecap="round" stroke-miterlimit="10" points="226.094,38.156 
	241.486,11.5 256.877,38.156 "/>
</svg>
