<?xml version="1.0" encoding="utf-8"?>
<!-- Generator: Adobe Illustrator 16.0.0, SVG Export Plug-In . SVG Version: 6.00 Build 0)  -->
<!DOCTYPE svg PUBLIC "-//W3C//DTD SVG 1.1//EN" "http://www.w3.org/Graphics/SVG/1.1/DTD/svg11.dtd">
<svg version="1.1" id="Layer_1" xmlns="http://www.w3.org/2000/svg" xmlns:xlink="http://www.w3.org/1999/xlink" x="0px" y="0px"
	 width="320px" height="100px" viewBox="0 0 320 100" enable-background="new 0 0 320 100" xml:space="preserve">
<g>
	<rect y="0.086" width="320.928" height="100"/>
	<g>
		
			<line fill="none" stroke="#E6E7E8" stroke-width="7" stroke-linecap="round" stroke-miterlimit="10" x1="98.327" y1="12.336" x2="98.327" y2="8.612"/>
		
			<line fill="none" stroke="#414042" stroke-width="7" stroke-linecap="round" stroke-miterlimit="10" x1="98.327" y1="90.851" x2="98.327" y2="83.915"/>
		<line fill="none" stroke="#414042" stroke-width="7" stroke-miterlimit="10" x1="98.327" y1="90.851" x2="98.327" y2="80.571"/>
		<line fill="none" stroke="#58595B" stroke-width="7" stroke-miterlimit="10" x1="98.327" y1="80.571" x2="98.327" y2="70.291"/>
		<line fill="none" stroke="#6D6E71" stroke-width="7" stroke-miterlimit="10" x1="98.327" y1="70.291" x2="98.327" y2="60.011"/>
		<line fill="none" stroke="#939598" stroke-width="7" stroke-miterlimit="10" x1="98.327" y1="60.011" x2="98.327" y2="49.732"/>
		<line fill="none" stroke="#A7A9AC" stroke-width="7" stroke-miterlimit="10" x1="98.327" y1="49.732" x2="98.327" y2="39.451"/>
		<line fill="none" stroke="#BCBEC0" stroke-width="7" stroke-miterlimit="10" x1="98.327" y1="39.451" x2="98.327" y2="29.172"/>
		<line fill="none" stroke="#D1D3D4" stroke-width="7" stroke-miterlimit="10" x1="98.327" y1="29.172" x2="98.327" y2="18.892"/>
		<line fill="none" stroke="#E6E7E8" stroke-width="7" stroke-miterlimit="10" x1="98.327" y1="18.892" x2="98.327" y2="8.612"/>
	</g>
	<g>
		
			<line fill="none" stroke="#E6E7E8" stroke-width="7" stroke-linecap="round" stroke-miterlimit="10" x1="223.052" y1="12.336" x2="223.052" y2="8.612"/>
		
			<line fill="none" stroke="#58595B" stroke-width="7" stroke-linecap="round" stroke-miterlimit="10" x1="223.052" y1="90.851" x2="223.052" y2="83.916"/>
		<line fill="none" stroke="#58595B" stroke-width="7" stroke-miterlimit="10" x1="223.052" y1="90.851" x2="223.052" y2="80.571"/>
		<line fill="none" stroke="#6D6E71" stroke-width="7" stroke-miterlimit="10" x1="223.052" y1="80.571" x2="223.052" y2="70.292"/>
		<line fill="none" stroke="#58595B" stroke-width="7" stroke-miterlimit="10" x1="223.052" y1="70.292" x2="223.052" y2="60.011"/>
		<line fill="none" stroke="#A7A9AC" stroke-width="7" stroke-miterlimit="10" x1="223.052" y1="60.011" x2="223.052" y2="49.732"/>
		<line fill="none" stroke="#58595B" stroke-width="7" stroke-miterlimit="10" x1="223.052" y1="49.732" x2="223.052" y2="39.452"/>
		<line fill="none" stroke="#BCBEC0" stroke-width="7" stroke-miterlimit="10" x1="223.052" y1="39.452" x2="223.052" y2="29.172"/>
		<line fill="none" stroke="#58595B" stroke-width="7" stroke-miterlimit="10" x1="223.052" y1="29.172" x2="223.052" y2="18.892"/>
		<line fill="none" stroke="#E6E7E8" stroke-width="7" stroke-miterlimit="10" x1="223.052" y1="18.892" x2="223.052" y2="8.612"/>
	</g>
	<polygon stroke="#000000" stroke-width="13.2239" stroke-linecap="round" stroke-miterlimit="10" points="112.515,38.703 
		98.327,63.277 84.137,38.703 	"/>
	<polygon stroke="#FFFFFF" stroke-width="7" stroke-linecap="round" stroke-miterlimit="10" points="112.515,38.703 98.327,63.277 
		84.137,38.703 	"/>
	<polygon stroke="#000000" stroke-width="13.2239" stroke-linecap="round" stroke-miterlimit="10" points="208.863,63.276 
		223.052,38.703 237.24,63.276 	"/>
	<polygon stroke="#FFFFFF" stroke-width="7" stroke-linecap="round" stroke-miterlimit="10" points="208.863,63.276 223.052,38.703 
		237.24,63.276 	"/>
</g>
</svg>
