<?xml version="1.0" encoding="utf-8"?>
<!-- Generator: Adobe Illustrator 16.0.0, SVG Export Plug-In . SVG Version: 6.00 Build 0)  -->
<!DOCTYPE svg PUBLIC "-//W3C//DTD SVG 1.1//EN" "http://www.w3.org/Graphics/SVG/1.1/DTD/svg11.dtd">
<svg version="1.1" id="Layer_1" xmlns="http://www.w3.org/2000/svg" xmlns:xlink="http://www.w3.org/1999/xlink" x="0px" y="0px"
	 width="44px" height="44px" viewBox="0 0 44 44" enable-background="new 0 0 44 44" xml:space="preserve">
<g>
	<g>
		<g>
			<path fill="#FFFFFF" d="M16.501,15.891c0-0.713,0.55-1.263,1.263-1.263h4.359c3.34,0,5.418,1.895,5.418,4.767v0.041
				c0,3.197-2.566,4.867-5.703,4.867h-2.831v3.442c0,0.692-0.55,1.243-1.243,1.243c-0.713,0-1.263-0.551-1.263-1.243V15.891z
				 M21.92,22.042c1.895,0,3.075-1.059,3.075-2.546v-0.041c0-1.67-1.202-2.546-3.075-2.546h-2.913v5.133H21.92z"/>
		</g>
	</g>
</g>
<g>
	<polygon fill="#C9C19F" points="38.604,4.643 38.67,4.643 38.67,39.357 4.053,39.357 0.242,43.188 42.5,43.188 42.5,0.812 
		42.414,0.812 	"/>
	<polygon fill="#FFFFFF" points="3.956,39.357 3.956,4.643 38.604,4.643 42.414,0.812 0.127,0.812 0.127,43.188 0.242,43.188 
		4.053,39.357 	"/>
</g>
</svg>
