<?xml version="1.0" encoding="utf-8"?>
<!-- Generator: Adobe Illustrator 16.0.0, SVG Export Plug-In . SVG Version: 6.00 Build 0)  -->
<!DOCTYPE svg PUBLIC "-//W3C//DTD SVG 1.1//EN" "http://www.w3.org/Graphics/SVG/1.1/DTD/svg11.dtd">
<svg version="1.1" id="Layer_1" xmlns="http://www.w3.org/2000/svg" xmlns:xlink="http://www.w3.org/1999/xlink" x="0px" y="0px"
	 width="100px" height="100px" viewBox="0 0 100 100" enable-background="new 0 0 100 100" xml:space="preserve">
<g>
	<path fill="#FFFFFF" d="M50.011,43.357l1.583,0.389c0.596,0.146,1.168,0.379,1.697,0.691l1.402,0.828l0.838,1.409
		c0.311,0.524,0.543,1.091,0.691,1.685l0.395,1.583l-0.422,1.588c-0.152,0.571-0.383,1.116-0.689,1.622l-0.854,1.414l-1.43,0.821
		c-0.492,0.282-1.021,0.497-1.576,0.639l-1.595,0.407l-1.607-0.427c-0.534-0.142-1.05-0.355-1.532-0.635l-1.432-0.831l-0.846-1.426
		c-0.286-0.482-0.506-1-0.656-1.541L43.54,49.99l0.395-1.609c0.138-0.562,0.352-1.101,0.636-1.602l0.81-1.428l1.407-0.863
		c0.51-0.312,1.062-0.551,1.64-0.705L50.011,43.357 M52.229,37.5h-4.514l-0.326,2.42c-0.96,0.258-1.865,0.651-2.692,1.158
		l-1.959-1.492l-3.192,3.191l1.546,2.027c-0.461,0.812-0.814,1.693-1.042,2.623L37.5,47.771v4.517l2.622,0.353
		c0.247,0.892,0.609,1.737,1.071,2.516l-1.608,2.108l3.193,3.191l2.128-1.623c0.778,0.451,1.622,0.805,2.512,1.041l0.353,2.627
		h4.517l0.35-2.598c0.914-0.233,1.781-0.588,2.58-1.047l2.045,1.56l3.193-3.192l-1.525-2.001c0.496-0.819,0.879-1.716,1.131-2.663
		l2.439-0.329v-4.515l-2.396-0.323c-0.244-0.983-0.629-1.911-1.133-2.759l1.443-1.896l-3.191-3.192l-1.898,1.447
		c-0.855-0.504-1.789-0.889-2.777-1.131L52.229,37.5L52.229,37.5z"/>
</g>
</svg>
