<?xml version="1.0" encoding="utf-8"?>
<!-- Generator: Adobe Illustrator 16.0.0, SVG Export Plug-In . SVG Version: 6.00 Build 0)  -->
<!DOCTYPE svg PUBLIC "-//W3C//DTD SVG 1.1//EN" "http://www.w3.org/Graphics/SVG/1.1/DTD/svg11.dtd">
<svg version="1.1" id="Layer_1" xmlns="http://www.w3.org/2000/svg" xmlns:xlink="http://www.w3.org/1999/xlink" x="0px" y="0px"
	 width="320px" height="100px" viewBox="0 0 320 100" enable-background="new 0 0 320 100" xml:space="preserve">
<g>
	<g>
		<path fill="#FFFFFF" d="M63.83,55.969l-2.893-8.188c-0.061-0.163-0.123-0.428-0.123-0.631c0-0.591,0.469-1.141,1.202-1.141
			c0.611,0,1.018,0.406,1.202,0.977l2.078,6.519l2.098-6.519c0.183-0.57,0.631-0.977,1.263-0.977h0.142
			c0.632,0,1.08,0.406,1.263,0.977l2.118,6.519l2.098-6.538c0.163-0.53,0.55-0.957,1.202-0.957c0.672,0,1.161,0.529,1.161,1.141
			c0,0.184-0.061,0.427-0.102,0.55l-2.933,8.269c-0.265,0.754-0.774,1.101-1.365,1.101H72.16c-0.61,0-1.12-0.347-1.344-1.059
			l-2.098-6.396L66.6,56.011c-0.224,0.712-0.734,1.059-1.324,1.059h-0.081C64.583,57.069,64.074,56.723,63.83,55.969z"/>
	</g>
</g>
<g>
	<g>
		<path fill="#FFFFFF" d="M154.56,43.891c0-0.713,0.55-1.263,1.263-1.263h5.133c1.629,0,2.913,0.448,3.727,1.263
			c0.632,0.632,0.958,1.405,0.958,2.363v0.041c0,1.711-0.979,2.627-2.037,3.177c1.67,0.57,2.831,1.527,2.831,3.462v0.041
			c0,2.547-2.098,3.911-5.276,3.911h-5.335c-0.713,0-1.263-0.55-1.263-1.263V43.891z M160.446,48.637
			c1.61,0,2.689-0.631,2.689-1.936v-0.04c0-1.12-0.896-1.813-2.505-1.813h-3.605v3.789H160.446z M161.18,54.666
			c1.711,0,2.749-0.672,2.749-1.956v-0.04c0-1.203-0.957-1.914-2.933-1.914h-3.972v3.91H161.18z"/>
	</g>
</g>
<g>
	<g>
		<g>
			<path fill="#FFFFFF" d="M246.501,43.891c0-0.713,0.55-1.263,1.263-1.263h4.359c3.34,0,5.418,1.895,5.418,4.767v0.041
				c0,3.197-2.566,4.867-5.703,4.867h-2.831v3.442c0,0.692-0.55,1.243-1.243,1.243c-0.713,0-1.263-0.551-1.263-1.243V43.891z
				 M251.92,50.042c1.895,0,3.075-1.059,3.075-2.546v-0.041c0-1.67-1.202-2.546-3.075-2.546h-2.913v5.133H251.92z"/>
		</g>
	</g>
</g>
<g>
	<polygon fill="#FFFFFF" points="85.977,32.643 86.043,32.643 86.043,67.357 51.427,67.357 47.615,71.188 89.874,71.188 
		89.874,28.812 89.789,28.812 	"/>
	<polygon fill="#FFFFFF" points="51.33,67.357 51.33,32.643 85.977,32.643 89.789,28.812 47.5,28.812 47.5,71.188 47.615,71.188 
		51.427,67.357 	"/>
</g>
<g>
	<polygon fill="#414042" points="177.408,32.643 177.475,32.643 177.475,67.357 142.858,67.357 139.046,71.188 181.305,71.188 
		181.305,28.812 181.219,28.812 	"/>
	<polygon fill="#FFFFFF" points="142.761,67.357 142.761,32.643 177.408,32.643 181.219,28.812 138.931,28.812 138.931,71.188 
		139.046,71.188 142.858,67.357 	"/>
</g>
<g>
	<polygon fill="#C9C19F" points="268.604,32.643 268.67,32.643 268.67,67.357 234.053,67.357 230.242,71.188 272.5,71.188 
		272.5,28.812 272.414,28.812 	"/>
	<polygon fill="#FFFFFF" points="233.956,67.357 233.956,32.643 268.604,32.643 272.414,28.812 230.127,28.812 230.127,71.188 
		230.242,71.188 234.053,67.357 	"/>
</g>
</svg>
