<?xml version="1.0" encoding="utf-8"?>
<!-- Generator: Adobe Illustrator 16.0.0, SVG Export Plug-In . SVG Version: 6.00 Build 0)  -->
<!DOCTYPE svg PUBLIC "-//W3C//DTD SVG 1.1//EN" "http://www.w3.org/Graphics/SVG/1.1/DTD/svg11.dtd">
<svg version="1.1" id="Layer_1" xmlns="http://www.w3.org/2000/svg" xmlns:xlink="http://www.w3.org/1999/xlink" x="0px" y="0px"
	 width="320px" height="100px" viewBox="0 0 320 100" enable-background="new 0 0 320 100" xml:space="preserve">
<g>
	<path fill="none" stroke="#FFFFFF" stroke-width="4" stroke-miterlimit="10" d="M31.575,70.5c-11.322,0-20.5-9.177-20.5-20.499
		S20.253,29.5,31.575,29.5"/>
	<path fill="none" stroke="#3B5999" stroke-width="4" stroke-miterlimit="10" d="M31.575,29.5c11.322,0,20.5,9.179,20.5,20.501
		S42.897,70.5,31.575,70.5"/>
</g>
<g>
	<path fill="none" stroke="#FFFFFF" stroke-width="4" stroke-miterlimit="10" d="M95.788,70.5c-11.322,0-20.5-9.177-20.5-20.499
		S84.465,29.5,95.788,29.5"/>
	<path fill="none" stroke="#5C90CC" stroke-width="4" stroke-miterlimit="10" d="M95.788,29.5c11.322,0,20.5,9.179,20.5,20.501
		S107.109,70.5,95.788,70.5"/>
</g>
<g>
	<path fill="none" stroke="#FFFFFF" stroke-width="4" stroke-miterlimit="10" d="M160,70.5c-11.322,0-20.501-9.177-20.501-20.499
		S148.678,29.5,160,29.5"/>
	<path fill="none" stroke="#864E3C" stroke-width="4" stroke-miterlimit="10" d="M160,29.5c11.322,0,20.5,9.179,20.5,20.501
		S171.322,70.5,160,70.5"/>
</g>
<g>
	<path fill="none" stroke="#FFFFFF" stroke-width="4" stroke-miterlimit="10" d="M288.426,70.5
		c-11.324,0-20.502-9.177-20.502-20.499S277.102,29.5,288.426,29.5"/>
	<path fill="none" stroke="#ED1C24" stroke-width="4" stroke-miterlimit="10" d="M288.426,29.5c11.32,0,20.5,9.179,20.5,20.501
		s-9.18,20.499-20.5,20.499"/>
</g>
<g>
	
		<rect x="220.971" y="48.333" fill="none" stroke="#58595B" stroke-width="4.8344" stroke-miterlimit="10" width="13.568" height="10.25"/>
	<rect x="214.939" y="42.171" stroke="#000000" stroke-width="13.2947" stroke-miterlimit="10" width="13.566" height="10.249"/>
	<rect x="214.939" y="42.171" stroke="#58595B" stroke-width="4.8344" stroke-miterlimit="10" width="13.566" height="10.249"/>
</g>
<path fill-rule="evenodd" clip-rule="evenodd" fill="#58595B" d="M30.979,38.487c0.131-0.083,0.273-0.154,0.428-0.214
	c0.143-0.06,0.303-0.112,0.48-0.16l0.98-0.196h0.641l4.525,0.356h0.018l-0.463,4.204h-0.018l-2.494-0.268h-0.071l-0.25,0.035
	l-0.089,0.036l-0.285,0.142c-0.06,0.013-0.107,0.043-0.143,0.09l-0.213,0.231c-0.048,0.06-0.089,0.131-0.125,0.214
	c-0.036,0.071-0.065,0.148-0.089,0.231c-0.024,0.083-0.042,0.172-0.054,0.268c-0.012,0.083-0.018,0.172-0.018,0.267l0.036,2.637
	l3.669,0.035l-0.534,4.168l-3.171,0.125v12.131l-0.017,0.018H28.77V50.581h-2.671v-4.186h2.564V46.36l0.018-0.054l0.089-4.471
	l0.036-0.249v-0.125l0.036-0.125c0.012-0.095,0.036-0.184,0.071-0.267c0.024-0.083,0.06-0.161,0.106-0.231
	c0.047-0.178,0.113-0.339,0.196-0.481c0.071-0.153,0.16-0.303,0.267-0.445c0.083-0.131,0.184-0.255,0.303-0.374
	c0.107-0.131,0.22-0.25,0.338-0.356v-0.019L30.979,38.487z"/>
<path fill-rule="evenodd" clip-rule="evenodd" fill="#58595B" d="M86.653,42.457c2.431,0.927,4.772,1.984,7.022,3.171
	c0.338,0.17,0.661,0.374,0.966,0.611c0.385,0.328,0.77,0.661,1.154,1.001c0.52-1.301,1.131-2.545,1.832-3.731
	c0.339-0.6,0.741-1.154,1.205-1.662c0.384-0.441,0.802-0.854,1.255-1.238l-0.407,0.797c0.611-0.51,1.329-0.842,2.154-1
	c-0.011,0.168-0.079,0.305-0.204,0.406c-0.045,0.045-0.09,0.09-0.135,0.136c-0.057,0.046-0.113,0.085-0.17,0.118
	c-0.068,0.045-0.142,0.08-0.22,0.103c-0.169,0.102-0.345,0.192-0.526,0.271c0.43-0.125,0.831-0.255,1.205-0.391
	c0.159-0.079,0.328-0.136,0.509-0.169c0.067-0.012,0.141-0.018,0.22-0.018c0.045-0.022,0.096-0.033,0.152-0.033
	c0.091,0.011,0.181,0.027,0.271,0.051c0.034,0.033,0.074,0.072,0.119,0.118c0.056,0.192-0.045,0.356-0.306,0.492
	c-0.237,0.112-0.48,0.215-0.729,0.306c-0.181,0.045-0.361,0.096-0.542,0.152c-0.261,0.079-0.521,0.164-0.78,0.254
	c1.187-0.079,2.267,0.197,3.239,0.832c0.441,0.293,0.837,0.644,1.188,1.051c0.667,0.77,1.131,1.662,1.39,2.68
	c0.057,0.204,0.107,0.413,0.153,0.628c0.735,0.192,1.486,0.198,2.256,0.017c0.238-0.079,0.475-0.169,0.712-0.271
	c0.102-0.033,0.198-0.073,0.289-0.117c-0.317,0.654-0.814,1.119-1.493,1.39c-0.305,0.124-0.622,0.215-0.949,0.271
	c-0.182,0.067-0.363,0.113-0.543,0.136c0.61,0.237,1.249,0.361,1.917,0.373c0.271,0,0.542,0,0.813,0
	c0.114-0.022,0.232-0.045,0.356-0.068c-0.486,0.555-1.085,0.922-1.798,1.104c-0.316,0.045-0.628,0.09-0.933,0.135
	c-0.181,0-0.356,0.006-0.526,0.018c-0.406,1.707-1.21,3.188-2.408,4.444c-0.633,0.667-1.324,1.26-2.069,1.781
	c-1.493,1.073-3.133,1.831-4.919,2.272c-1.865,0.475-3.76,0.593-5.682,0.355c-2.646-0.361-4.993-1.401-7.04-3.121
	c-0.803-0.666-1.504-1.412-2.103-2.238c1.006,0.972,2.205,1.582,3.596,1.832c0.724,0.124,1.447,0.152,2.171,0.085
	c1.12-0.091,2.125-0.43,3.019-1.019c0.509-0.339,0.983-0.734,1.425-1.188c-0.555,0.146-1.068,0.04-1.544-0.322
	c-0.181-0.158-0.299-0.367-0.356-0.627c-0.09-0.441,0.051-0.78,0.424-1.018c0.204-0.125,0.408-0.242,0.611-0.357
	c-0.961,0.125-1.803-0.112-2.527-0.711c-0.215-0.17-0.413-0.362-0.594-0.578c-0.102-0.123-0.192-0.248-0.271-0.372
	c0.362-0.373,0.786-0.594,1.272-0.661c0.204-0.034,0.413-0.063,0.627-0.085c-0.814-0.159-1.549-0.526-2.205-1.103
	c-0.362-0.316-0.611-0.701-0.746-1.153c-0.045-0.17-0.091-0.334-0.136-0.492l1.696-0.187c-0.792-0.373-1.425-0.934-1.899-1.68
	c-0.012-0.022-0.023-0.045-0.034-0.068c-0.249-0.406-0.385-0.83-0.407-1.271C86.659,42.751,86.653,42.604,86.653,42.457z"/>
<g>
	<path fill="#58595B" d="M165.566,38.976h-10.762c-2.965,0-5.377,2.413-5.377,5.378v10.851c0,2.964,2.412,5.376,5.377,5.376h10.762
		c2.965,0,5.377-2.412,5.377-5.376V44.354C170.943,41.389,168.531,38.976,165.566,38.976z M154.805,40.968h10.762
		c1.867,0,3.387,1.519,3.387,3.386v1.851h-5.701c-0.836-0.595-1.855-0.946-2.957-0.946s-2.121,0.352-2.955,0.946h-5.921v-1.851
		C151.419,42.486,152.938,40.968,154.805,40.968z M162.416,50.366c0,1.169-0.951,2.119-2.121,2.119c-1.168,0-2.12-0.95-2.12-2.119
		c0-1.17,0.952-2.12,2.12-2.12C161.465,48.246,162.416,49.196,162.416,50.366z M165.566,58.589h-10.762
		c-1.867,0-3.386-1.519-3.386-3.385v-7.008h4.254c-0.311,0.658-0.485,1.394-0.485,2.17c0,2.816,2.292,5.107,5.107,5.107
		c2.818,0,5.108-2.291,5.108-5.107c0-0.776-0.175-1.512-0.485-2.17h4.035v7.008C168.953,57.07,167.434,58.589,165.566,58.589z"/>
	<path fill="#58595B" d="M167.392,44.619c0,0.329-0.269,0.598-0.599,0.598h-1.845c-0.329,0-0.597-0.269-0.597-0.598v-1.847
		c0-0.328,0.268-0.598,0.597-0.598h1.845c0.33,0,0.599,0.27,0.599,0.598V44.619z"/>
</g>
<g>
	<path fill="none" stroke="#FFFFFF" stroke-width="4" stroke-miterlimit="10" d="M224.213,70.5c-11.322,0-20.5-9.177-20.5-20.499
		s9.178-20.501,20.5-20.501"/>
	<path fill="none" stroke="#ECBF1D" stroke-width="4" stroke-miterlimit="10" d="M224.213,29.5c11.322,0,20.5,9.179,20.5,20.501
		s-9.178,20.499-20.5,20.499"/>
</g>
<g>
	<polygon fill="#58595B" points="293.658,60.988 284.016,60.988 282.059,43.638 295.615,43.638 	"/>
	
		<line stroke="#58595B" stroke-width="3.9193" stroke-linecap="round" stroke-miterlimit="10" x1="282.098" y1="40.878" x2="295.576" y2="40.878"/>
	<path fill="#58595B" d="M290.213,39.625c0,0.473-0.385,0.856-0.857,0.856h-1.037c-0.473,0-0.855-0.384-0.855-0.856l0,0
		c0-0.473,0.383-0.855,0.855-0.855h1.037C289.828,38.77,290.213,39.152,290.213,39.625L290.213,39.625z"/>
</g>
</svg>
