<?xml version="1.0" encoding="utf-8"?>
<!-- Generator: Adobe Illustrator 16.0.0, SVG Export Plug-In . SVG Version: 6.00 Build 0)  -->
<!DOCTYPE svg PUBLIC "-//W3C//DTD SVG 1.1//EN" "http://www.w3.org/Graphics/SVG/1.1/DTD/svg11.dtd">
<svg version="1.1" id="Layer_1" xmlns="http://www.w3.org/2000/svg" xmlns:xlink="http://www.w3.org/1999/xlink" x="0px" y="0px"
	 width="640px" height="200px" viewBox="0 0 640 200" enable-background="new 0 0 640 200" xml:space="preserve">
<rect x="0.809" y="0.578" width="640" height="199.423"/>
<g>
	<circle fill="none" stroke="#FFFFFF" stroke-width="8" stroke-miterlimit="10" cx="326.809" cy="100.42" r="12.51"/>
	
		<rect x="281.252" y="71.838" fill="none" stroke="#FFFFFF" stroke-width="8" stroke-miterlimit="10" width="91.113" height="57.164"/>
</g>
<rect x="115.677" y="94.841" fill="none" stroke="#FFFFFF" stroke-width="8" stroke-miterlimit="10" width="45.011" height="34.002"/>
<rect x="95.663" y="74.397" fill="#231F20" stroke="#FFFFFF" stroke-width="8" stroke-miterlimit="10" width="45.011" height="34.002"/>
<g>
	<path fill="#FFFFFF" d="M524.13,86.985l3.318,0.814c1.251,0.307,2.449,0.795,3.561,1.452l2.944,1.738l1.75,2.949
		c0.653,1.1,1.143,2.291,1.453,3.537l0.829,3.32l-0.885,3.325c-0.319,1.198-0.807,2.345-1.449,3.408l-1.788,2.96l-2.994,1.722
		c-1.032,0.593-2.146,1.044-3.308,1.341l-3.348,0.854l-3.367-0.895c-1.121-0.297-2.203-0.745-3.215-1.332l-3.005-1.742l-1.771-2.987
		c-0.601-1.013-1.063-2.101-1.377-3.234l-0.918-3.318l0.828-3.376c0.288-1.178,0.737-2.309,1.334-3.36l1.697-2.992l2.948-1.809
		c1.07-0.656,2.229-1.155,3.441-1.481L524.13,86.985 M528.503,76.315h-8.881l-0.641,4.759c-1.889,0.508-3.669,1.281-5.296,2.279
		l-3.853-2.937l-6.278,6.279l3.041,3.988c-0.906,1.598-1.601,3.331-2.049,5.159l-5.015,0.673v8.883l5.157,0.694
		c0.485,1.755,1.198,3.416,2.106,4.948l-3.163,4.146l6.28,6.279l4.186-3.192c1.531,0.888,3.189,1.582,4.94,2.047l0.693,5.168h8.883
		l0.688-5.11c1.8-0.459,3.504-1.155,5.077-2.06l4.022,3.068l6.28-6.278l-3.001-3.937c0.975-1.613,1.73-3.375,2.227-5.239
		l4.797-0.646v-8.88l-4.713-0.635c-0.482-1.934-1.239-3.758-2.23-5.428l2.842-3.727l-6.279-6.279l-3.734,2.848
		c-1.681-0.992-3.517-1.749-5.462-2.227L528.503,76.315L528.503,76.315z"/>
</g>
</svg>
