<?xml version="1.0" encoding="utf-8"?>
<!-- Generator: Adobe Illustrator 16.0.0, SVG Export Plug-In . SVG Version: 6.00 Build 0)  -->
<!DOCTYPE svg PUBLIC "-//W3C//DTD SVG 1.1//EN" "http://www.w3.org/Graphics/SVG/1.1/DTD/svg11.dtd">
<svg version="1.1" id="Layer_1" xmlns="http://www.w3.org/2000/svg" xmlns:xlink="http://www.w3.org/1999/xlink" x="0px" y="0px"
	 width="320px" height="468px" viewBox="0 0 320 468" enable-background="new 0 0 320 468" xml:space="preserve">
<g>
	<path fill="#FFFFFF" d="M9.028,128.652c0-1.418,1.094-2.513,2.512-2.513h10.212c3.243,0,5.795,0.892,7.417,2.513
		c1.256,1.256,1.905,2.796,1.905,4.7v0.082c0,3.404-1.945,5.227-4.052,6.322c3.323,1.135,5.633,3.039,5.633,6.889v0.081
		c0,5.065-4.174,7.781-10.496,7.781H11.541c-1.418,0-2.512-1.094-2.512-2.512V128.652z M20.74,138.094
		c3.201,0,5.349-1.255,5.349-3.849v-0.082c0-2.229-1.783-3.606-4.985-3.606h-7.173v7.537H20.74z M22.199,150.089
		c3.404,0,5.471-1.337,5.471-3.89v-0.082c0-2.39-1.904-3.808-5.835-3.808h-7.903v7.78H22.199z"/>
	<path fill="#FFFFFF" d="M36.667,151.265l10.536-23.504c0.567-1.258,1.581-2.027,2.999-2.027h0.244c1.418,0,2.391,0.769,2.958,2.027
		l10.537,23.504c0.203,0.364,0.284,0.729,0.284,1.054c0,1.336-1.013,2.391-2.351,2.391c-1.176,0-1.986-0.688-2.431-1.743
		l-2.311-5.31H43.354l-2.391,5.472c-0.405,1.012-1.255,1.581-2.31,1.581c-1.297,0-2.31-1.013-2.31-2.31
		C36.343,152.036,36.464,151.67,36.667,151.265z M55.228,143.241l-4.984-11.469l-4.984,11.469H55.228z"/>
	<path fill="#FFFFFF" d="M67.144,140.404v-0.081c0-8.065,6.038-14.67,14.63-14.67c4.376,0,7.253,1.296,9.726,3.201
		c0.527,0.405,0.973,1.094,0.973,1.986c0,1.377-1.095,2.431-2.473,2.431c-0.688,0-1.175-0.243-1.499-0.486
		c-1.945-1.58-4.053-2.553-6.768-2.553c-5.39,0-9.361,4.458-9.361,10.01v0.082c0,5.551,3.931,10.05,9.361,10.05
		c2.999,0,5.025-0.972,7.092-2.716c0.366-0.324,0.892-0.566,1.5-0.566c1.257,0,2.351,1.053,2.351,2.311
		c0,0.769-0.365,1.377-0.811,1.783c-2.674,2.35-5.714,3.809-10.293,3.809C73.303,154.994,67.144,148.549,67.144,140.404z"/>
	<path fill="#FFFFFF" d="M98.309,128.409c0-1.378,1.094-2.472,2.512-2.472c1.378,0,2.472,1.094,2.472,2.472v11.996l13.455-13.536
		c0.567-0.608,1.175-0.932,2.067-0.932c1.377,0,2.31,1.094,2.31,2.309c0,0.771-0.324,1.338-0.891,1.865l-8.835,8.511l9.564,11.873
		c0.406,0.527,0.689,1.013,0.689,1.784c0,1.377-1.095,2.432-2.513,2.432c-0.972,0-1.581-0.487-2.107-1.175l-9.118-11.63l-4.62,4.458
		v5.875c0,1.378-1.094,2.473-2.472,2.473c-1.418,0-2.512-1.095-2.512-2.473V128.409z"/>
	<path fill="#FFFFFF" d="M124.49,140.404v-0.081c0-7.943,6.079-14.67,14.629-14.67c4.254,0,7.091,1.013,9.686,2.876
		c0.486,0.364,1.013,1.054,1.013,2.027c0,1.337-1.094,2.472-2.472,2.472c-0.648,0-1.135-0.283-1.54-0.567
		c-1.824-1.337-3.81-2.229-6.889-2.229c-5.228,0-9.199,4.58-9.199,10.01v0.082c0,5.836,3.85,10.131,9.645,10.131
		c2.675,0,5.106-0.851,6.849-2.148v-5.309h-5.592c-1.216,0-2.229-0.933-2.229-2.149c0-1.214,1.014-2.188,2.229-2.188h7.902
		c1.418,0,2.512,1.095,2.512,2.514v7.578c0,1.418-0.567,2.432-1.742,3.162c-2.432,1.621-5.835,3.08-10.091,3.08
		C130.325,154.994,124.49,148.672,124.49,140.404z"/>
	<path fill="#FFFFFF" d="M157.519,128.652c0-1.418,1.094-2.513,2.513-2.513h10.132c3.565,0,6.362,1.054,8.186,2.837
		c1.499,1.54,2.352,3.647,2.352,6.12v0.081c0,4.539-2.635,7.294-6.444,8.47l5.432,6.849c0.484,0.608,0.81,1.135,0.81,1.905
		c0,1.378-1.176,2.31-2.392,2.31c-1.134,0-1.863-0.526-2.432-1.297l-6.889-8.793h-6.281v7.617c0,1.378-1.095,2.473-2.473,2.473
		c-1.418,0-2.513-1.095-2.513-2.473V128.652z M169.798,140.202c3.566,0,5.836-1.864,5.836-4.742v-0.081
		c0-3.04-2.188-4.701-5.876-4.701h-7.254v9.524H169.798z"/>
	<path fill="#FFFFFF" d="M185.563,140.404v-0.081c0-7.984,6.16-14.67,14.872-14.67c8.713,0,14.793,6.605,14.793,14.588v0.082
		c0,7.983-6.161,14.67-14.873,14.67C191.643,154.994,185.563,148.388,185.563,140.404z M210.001,140.404v-0.081
		c0-5.512-4.013-10.092-9.646-10.092s-9.564,4.499-9.564,10.01v0.082c0,5.511,4.013,10.05,9.645,10.05
		C206.068,150.374,210.001,145.916,210.001,140.404z"/>
	<path fill="#FFFFFF" d="M220.822,142.471v-14.062c0-1.378,1.094-2.472,2.511-2.472c1.379,0,2.473,1.094,2.473,2.472v13.86
		c0,5.269,2.716,8.065,7.173,8.065c4.418,0,7.133-2.635,7.133-7.863v-14.062c0-1.378,1.095-2.472,2.513-2.472
		c1.378,0,2.473,1.094,2.473,2.472v13.819c0,8.47-4.783,12.726-12.2,12.726C225.523,154.953,220.822,150.698,220.822,142.471z"/>
	<path fill="#FFFFFF" d="M251.946,128.489c0-1.378,1.094-2.511,2.511-2.511h0.528c1.217,0,1.905,0.607,2.594,1.458l14.184,18.358
		v-17.426c0-1.338,1.094-2.432,2.432-2.432c1.378,0,2.473,1.094,2.473,2.432v23.828c0,1.378-1.054,2.473-2.432,2.473h-0.202
		c-1.177,0-1.905-0.608-2.594-1.499l-14.59-18.886v17.994c0,1.337-1.094,2.432-2.432,2.432c-1.378,0-2.472-1.095-2.472-2.432
		V128.489z"/>
	<path fill="#FFFFFF" d="M283.962,128.652c0-1.418,1.095-2.513,2.514-2.513h8.063c8.917,0,15.076,6.12,15.076,14.103v0.082
		c0,7.983-6.159,14.183-15.076,14.183h-8.063c-1.419,0-2.514-1.094-2.514-2.512V128.652z M294.539,149.969
		c5.958,0,9.849-4.013,9.849-9.565v-0.081c0-5.553-3.891-9.646-9.849-9.646h-5.593v19.291H294.539z"/>
</g>
</svg>
