<?xml version="1.0" encoding="utf-8"?>
<!-- Generator: Adobe Illustrator 16.0.0, SVG Export Plug-In . SVG Version: 6.00 Build 0)  -->
<!DOCTYPE svg PUBLIC "-//W3C//DTD SVG 1.1//EN" "http://www.w3.org/Graphics/SVG/1.1/DTD/svg11.dtd">
<svg version="1.1" id="Layer_1" xmlns="http://www.w3.org/2000/svg" xmlns:xlink="http://www.w3.org/1999/xlink" x="0px" y="0px"
	 width="53px" height="53px" viewBox="0 0 53 53" enable-background="new 0 0 53 53" xml:space="preserve">
<g>
	<polygon fill="#FFFFFF" points="32.936,42.33 19.006,42.33 16.179,17.264 35.764,17.264 	"/>
	<path fill="#FFFFFF" d="M35.707,11.865h-7.82c0.043-0.127,0.07-0.259,0.07-0.398c0-0.684-0.555-1.236-1.236-1.236h-1.5
		c-0.682,0-1.234,0.553-1.234,1.236c0,0.14,0.028,0.271,0.071,0.398h-7.823c-0.779,0-1.412,0.633-1.412,1.412
		s0.633,1.412,1.412,1.412h19.473c0.779,0,1.412-0.633,1.412-1.412S36.486,11.865,35.707,11.865z"/>
</g>
</svg>
