<?xml version="1.0" encoding="utf-8"?>
<!-- Generator: Adobe Illustrator 16.0.0, SVG Export Plug-In . SVG Version: 6.00 Build 0)  -->
<!DOCTYPE svg PUBLIC "-//W3C//DTD SVG 1.1//EN" "http://www.w3.org/Graphics/SVG/1.1/DTD/svg11.dtd">
<svg version="1.1" id="Layer_1" xmlns="http://www.w3.org/2000/svg" xmlns:xlink="http://www.w3.org/1999/xlink" x="0px" y="0px"
	 width="44px" height="44px" viewBox="0 0 44 44" enable-background="new 0 0 44 44" xml:space="preserve">
<g>
	<g>
		<path fill="#FFFFFF" d="M16.83,27.969l-2.893-8.188c-0.061-0.163-0.123-0.428-0.123-0.631c0-0.591,0.469-1.141,1.202-1.141
			c0.611,0,1.018,0.406,1.202,0.977l2.078,6.519l2.098-6.519c0.183-0.57,0.631-0.977,1.263-0.977h0.142
			c0.632,0,1.08,0.406,1.264,0.977l2.117,6.519l2.099-6.538c0.163-0.53,0.55-0.957,1.202-0.957c0.672,0,1.16,0.529,1.16,1.141
			c0,0.184-0.061,0.427-0.102,0.55l-2.933,8.269c-0.265,0.754-0.774,1.101-1.365,1.101H25.16c-0.611,0-1.121-0.347-1.344-1.059
			l-2.099-6.396L19.6,28.011c-0.224,0.712-0.734,1.059-1.324,1.059h-0.081C17.583,29.069,17.074,28.723,16.83,27.969z"/>
	</g>
</g>
<g>
	<polygon fill="#FFFFFF" points="38.977,4.643 39.043,4.643 39.043,39.357 4.427,39.357 0.615,43.188 42.873,43.188 42.873,0.812 
		42.789,0.812 	"/>
	<polygon fill="#FFFFFF" points="4.33,39.357 4.33,4.643 38.977,4.643 42.789,0.812 0.5,0.812 0.5,43.188 0.615,43.188 
		4.427,39.357 	"/>
</g>
</svg>
