<?xml version="1.0" encoding="utf-8"?>
<!-- Generator: Adobe Illustrator 16.0.0, SVG Export Plug-In . SVG Version: 6.00 Build 0)  -->
<!DOCTYPE svg PUBLIC "-//W3C//DTD SVG 1.1//EN" "http://www.w3.org/Graphics/SVG/1.1/DTD/svg11.dtd">
<svg version="1.1" id="Layer_1" xmlns="http://www.w3.org/2000/svg" xmlns:xlink="http://www.w3.org/1999/xlink" x="0px" y="0px"
	 width="80px" height="100px" viewBox="0 0 80 100" enable-background="new 0 0 80 100" xml:space="preserve">
<g>
	<polygon fill="#53883E" points="62.863,27.049 62.951,27.049 62.951,72.818 17.312,72.818 12.285,77.867 68,77.867 68,22 
		67.889,22 	"/>
	<polygon fill="#FFFFFF" points="17.05,72.818 17.05,27.049 62.729,27.049 67.755,22 12,22 12,77.867 12.152,77.867 17.178,72.818 	
		"/>
	<g>
		<path fill="#FFFFFF" d="M24.247,50.979v-0.048c0-4.813,3.628-8.755,8.828-8.755c2.54,0,4.257,0.676,5.66,1.717
			c0.387,0.291,0.726,0.822,0.726,1.476c0,1.016-0.823,1.814-1.838,1.814c-0.508,0-0.846-0.193-1.112-0.362
			c-1.041-0.774-2.129-1.209-3.459-1.209c-2.854,0-4.91,2.37-4.91,5.272v0.048c0,2.903,2.007,5.321,4.91,5.321
			c1.572,0,2.612-0.483,3.676-1.33c0.29-0.242,0.677-0.41,1.113-0.41c0.943,0,1.741,0.773,1.741,1.717
			c0,0.58-0.29,1.039-0.629,1.329c-1.523,1.331-3.313,2.13-6.022,2.13C27.947,59.688,24.247,55.841,24.247,50.979z"/>
		<path fill="#FFFFFF" d="M46.79,45.899h-3.58c-0.942,0-1.717-0.774-1.717-1.717c0-0.944,0.774-1.718,1.717-1.718h10.884
			c0.945,0,1.719,0.774,1.719,1.718c0,0.943-0.773,1.717-1.719,1.717h-3.578v11.78c0,1.039-0.822,1.862-1.863,1.862
			c-1.04,0-1.862-0.823-1.862-1.862V45.899z"/>
	</g>
</g>
<g>
	<linearGradient id="SVGID_1_" gradientUnits="userSpaceOnUse" x1="12.3174" y1="49.918" x2="68" y2="49.918">
		<stop  offset="0" style="stop-color:#E6C328"/>
		<stop  offset="1" style="stop-color:#F2DD6C"/>
	</linearGradient>
	<polygon fill="url(#SVGID_1_)" points="62.866,27.046 62.954,27.046 62.954,72.79 17.34,72.79 12.317,77.836 68,77.836 68,22 
		67.889,22 	"/>
	<polygon fill="#FFFFFF" points="17.047,72.79 17.047,27.046 62.701,27.046 67.723,22 12,22 12,77.836 12.151,77.836 17.176,72.79 	
		"/>
	<g>
		<path fill="#FFFFFF" d="M19.434,44.823c-0.072-0.218-0.144-0.484-0.144-0.701c0-1.04,0.869-1.813,1.909-1.813
			c0.87,0,1.571,0.556,1.812,1.33l3.36,10.37l3.384-10.274c0.29-0.87,0.943-1.475,1.886-1.475h0.291c0.942,0,1.595,0.58,1.885,1.475
			l3.385,10.274l3.36-10.37c0.241-0.726,0.869-1.33,1.788-1.33c1.016,0,1.837,0.773,1.837,1.789c0,0.217-0.071,0.507-0.145,0.725
			l-4.738,13.295c-0.338,0.942-1.039,1.523-1.934,1.523h-0.387c-0.895,0-1.571-0.558-1.91-1.523l-3.336-9.693l-3.336,9.693
			c-0.338,0.966-1.016,1.523-1.909,1.523h-0.387c-0.895,0-1.596-0.581-1.934-1.523L19.434,44.823z"/>
		<path fill="#FFFFFF" d="M47.042,44.314c0-1.039,0.822-1.861,1.861-1.861h5.053c4.036,0,6.478,2.394,6.478,5.851v0.048
			c0,3.917-3.046,5.947-6.84,5.947h-2.829v3.36c0,1.039-0.821,1.862-1.861,1.862c-1.039,0-1.861-0.823-1.861-1.862V44.314z
			 M53.714,50.987c1.862,0,2.949-1.112,2.949-2.562v-0.049c0-1.668-1.16-2.562-3.021-2.562h-2.877v5.174H53.714z"/>
	</g>
</g>
<g>
	<polygon fill="#FFFFFF" points="62.863,27.049 62.951,27.049 62.951,72.818 17.312,72.818 12.285,77.867 68,77.867 68,22 
		67.889,22 	"/>
	<polygon fill="#FFFFFF" points="17.05,72.818 17.05,27.049 62.73,27.049 67.754,22 12,22 12,77.867 12.152,77.867 17.178,72.818 	
		"/>
	<g>
		<path fill="#FFFFFF" d="M23.216,50.979v-0.048c0-4.813,3.628-8.755,8.829-8.755c2.54,0,4.257,0.676,5.66,1.717
			c0.387,0.291,0.726,0.822,0.726,1.476c0,1.016-0.822,1.814-1.838,1.814c-0.508,0-0.847-0.193-1.113-0.362
			c-1.04-0.774-2.128-1.209-3.459-1.209c-2.854,0-4.91,2.37-4.91,5.272v0.048c0,2.903,2.007,5.321,4.91,5.321
			c1.572,0,2.612-0.483,3.677-1.33c0.29-0.242,0.677-0.41,1.112-0.41c0.943,0,1.742,0.773,1.742,1.717
			c0,0.58-0.291,1.039-0.629,1.329c-1.523,1.331-3.314,2.13-6.022,2.13C26.917,59.688,23.216,55.841,23.216,50.979z"/>
		<path fill="#FFFFFF" d="M40.584,50.979v-0.048c0-4.813,3.629-8.755,8.828-8.755c2.54,0,4.257,0.676,5.66,1.717
			c0.387,0.291,0.726,0.822,0.726,1.476c0,1.016-0.822,1.814-1.839,1.814c-0.508,0-0.846-0.193-1.111-0.362
			c-1.041-0.774-2.129-1.209-3.459-1.209c-2.854,0-4.91,2.37-4.91,5.272v0.048c0,2.903,2.007,5.321,4.91,5.321
			c1.572,0,2.611-0.483,3.676-1.33c0.291-0.242,0.678-0.41,1.113-0.41c0.943,0,1.741,0.773,1.741,1.717
			c0,0.58-0.29,1.039-0.629,1.329c-1.524,1.331-3.313,2.13-6.022,2.13C44.285,59.688,40.584,55.841,40.584,50.979z"/>
	</g>
	<g>
		<defs>
			<polygon id="SVGID_2_" points="62.863,27.049 62.951,27.049 62.951,72.818 17.312,72.818 12.285,77.867 68,77.867 68,22 
				67.889,22 			"/>
		</defs>
		<clipPath id="SVGID_3_">
			<use xlink:href="#SVGID_2_"  overflow="visible"/>
		</clipPath>
		<g clip-path="url(#SVGID_3_)">
			
				<rect x="21.583" y="49.058" transform="matrix(0.7072 -0.707 0.707 0.7072 -49.6536 40.6939)" fill="#BE1E2D" width="5.442" height="62.474"/>
			
				<rect x="31.071" y="39.569" transform="matrix(0.707 -0.7072 0.7072 0.707 -40.1731 44.6428)" fill="#BE1E2D" width="5.443" height="62.474"/>
			
				<rect x="40.559" y="30.08" transform="matrix(0.707 -0.7072 0.7072 0.707 -30.6827 48.5729)" fill="#BE1E2D" width="5.443" height="62.474"/>
			
				<rect x="50.047" y="20.592" transform="matrix(0.707 -0.7072 0.7072 0.707 -21.1929 52.5031)" fill="#BE1E2D" width="5.443" height="62.474"/>
			
				<rect x="59.536" y="11.103" transform="matrix(0.7071 -0.7071 0.7071 0.7071 -11.7044 56.4242)" fill="#BE1E2D" width="5.444" height="62.474"/>
			
				<rect x="69.024" y="1.615" transform="matrix(0.707 -0.7072 0.7072 0.707 -2.2128 60.3634)" fill="#BE1E2D" width="5.443" height="62.474"/>
		</g>
	</g>
</g>
</svg>
