<?xml version="1.0" encoding="utf-8"?>
<!-- Generator: Adobe Illustrator 16.0.0, SVG Export Plug-In . SVG Version: 6.00 Build 0)  -->
<!DOCTYPE svg PUBLIC "-//W3C//DTD SVG 1.0//EN" "http://www.w3.org/TR/2001/REC-SVG-20010904/DTD/svg10.dtd" [
	<!ENTITY ns_extend "http://ns.adobe.com/Extensibility/1.0/">
	<!ENTITY ns_ai "http://ns.adobe.com/AdobeIllustrator/10.0/">
	<!ENTITY ns_graphs "http://ns.adobe.com/Graphs/1.0/">
	<!ENTITY ns_vars "http://ns.adobe.com/Variables/1.0/">
	<!ENTITY ns_imrep "http://ns.adobe.com/ImageReplacement/1.0/">
	<!ENTITY ns_sfw "http://ns.adobe.com/SaveForWeb/1.0/">
	<!ENTITY ns_custom "http://ns.adobe.com/GenericCustomNamespace/1.0/">
	<!ENTITY ns_adobe_xpath "http://ns.adobe.com/XPath/1.0/">
]>
<svg version="1.0" id="Layer_1" xmlns:x="&ns_extend;" xmlns:i="&ns_ai;" xmlns:graph="&ns_graphs;"
	 xmlns="http://www.w3.org/2000/svg" xmlns:xlink="http://www.w3.org/1999/xlink" x="0px" y="0px" width="50px" height="50px"
	 viewBox="0 0 50 50" enable-background="new 0 0 50 50" xml:space="preserve">
<metadata>
	<sfw  xmlns="&ns_sfw;">
		<slices></slices>
		<sliceSourceBounds  height="48" width="46.701" x="6.151" y="6.5" bottomLeftOrigin="true"></sliceSourceBounds>
	</sfw>
</metadata>
<path fill="#FFFFFF" d="M46.314,32.439c1.16-2.651,1.834-5.562,1.922-8.614c0.186-2.319,0.168-4.989-0.203-7.993
	c-0.098-0.782-0.729-1.39-1.514-1.457c-0.785-0.062-1.511,0.426-1.737,1.181c-3.003,9.973-11.556,11.477-11.913,11.535
	c-0.86,0.134-1.475,0.906-1.406,1.775c0.066,0.868,0.791,1.538,1.662,1.538h3.805c1.524,0.109,1.221,1.125,0.75,1.798
	c-1.305,1.825-2.994,3.356-4.947,4.479c-0.021,0.006-0.043,0.017-0.067,0.028c-1.183,0.59-3.688,0.886-3.752-1.589v-19.42
	c0-1.975,0.344-3.059,1.397-4.84l-0.004,0.002c0.664-1.004,1.051-2.206,1.051-3.5C31.357,3.849,28.509,1,24.995,1
	c-3.515,0-6.363,2.849-6.363,6.363c0,1.339,0.416,2.58,1.121,3.604c0.899,1.537,1.259,2.566,1.324,4.151v19.737
	c0.121,2.771-2.533,2.467-3.755,1.855c-0.02-0.01-0.037-0.018-0.053-0.021c-1.933-1.107-3.606-2.617-4.907-4.414
	c-0.01-0.017-0.018-0.029-0.029-0.045c-0.48-0.672-0.813-1.713,0.733-1.824h3.811c0.002,0,0.005,0,0.007,0
	c0.921,0,1.667-0.746,1.667-1.668c0-0.848-0.634-1.549-1.454-1.652c-0.742-0.133-8.95-1.803-11.877-11.529
	c-0.228-0.754-0.95-1.244-1.738-1.181c-0.785,0.067-1.417,0.674-1.513,1.457c-0.36,2.907-0.386,5.5-0.22,7.766
	c0.061,3.224,0.779,6.288,2.028,9.066c0.517,1.249,0.938,1.937,0.992,2.021c0.047,0.076,0.102,0.146,0.16,0.211
	c3.179,5.412,8.481,9.431,14.757,10.902l-0.045-0.001c3.533,0.692,4.21,2.757,5.069,3.132l0,0c0.093,0.047,0.188,0.07,0.287,0.07
	c0.148,0,0.292-0.055,0.426-0.156c0.796-0.535,1.595-2.395,4.913-3.046l-0.027,0.001c6.265-1.471,11.56-5.475,14.738-10.873
	c0.068-0.074,0.133-0.152,0.188-0.24C45.289,34.596,45.758,33.831,46.314,32.439z"/>
</svg>
